<svg width="157" height="117" viewBox="0 0 157 117" fill="none" xmlns="http://www.w3.org/2000/svg">
<rect y="0.736542" width="34.1176" height="34.1176" rx="17.0588" fill="#0099FF"/>
<g clip-path="url(#clip0)">
<path d="M110.172 107.405C103.621 107.423 97.0772 106.993 90.5851 106.12C90.3731 106.093 90.1583 106.063 89.9448 106.031C88.3513 105.804 86.7569 105.545 85.2069 105.26C78.2317 103.983 71.654 102.117 65.6566 99.7153C45.6986 91.722 33.1501 93.4232 26.1378 96.2578C18.5489 99.3255 15.6317 104.345 15.6031 104.395L15.3535 104.253C15.3825 104.202 18.3373 99.1081 26.009 96C30.5071 94.1775 35.7253 93.3811 41.5198 93.632C48.7528 93.9457 56.9094 95.9026 65.7632 99.4484C71.7429 101.843 78.3022 103.704 85.2585 104.977C86.8048 105.261 88.3954 105.52 89.9862 105.746C90.1987 105.778 90.4115 105.808 90.6229 105.835C108.221 108.259 125.198 106.797 136.342 105.145C145.527 103.782 151.438 102.189 151.497 102.173L151.572 102.451C151.513 102.467 145.587 104.064 136.384 105.429C127.706 106.723 118.945 107.383 110.172 107.405Z" fill="#3F3D56"/>
<path d="M110.191 24.9273C105.132 24.9273 100.206 24.6903 95.4535 24.2164C84.533 23.1274 74.5079 20.7779 65.6566 17.233C45.6986 9.2397 33.1501 10.9408 26.1378 13.7755C18.5489 16.8431 15.6317 21.8622 15.6031 21.9125L15.3535 21.7706C15.3825 21.7196 18.3373 16.6259 26.009 13.5177C30.5072 11.6952 35.7253 10.8984 41.5198 11.1497C48.7528 11.4633 56.9094 13.4202 65.7632 16.9661C85.7527 24.9719 107.996 25.2865 123.136 24.1416C139.546 22.9001 151.379 19.7231 151.497 19.6912L151.572 19.9685C151.454 20.0005 139.6 23.1838 123.164 24.4277C118.763 24.7608 114.43 24.9273 110.191 24.9273Z" fill="#3F3D56"/>
<path d="M109.448 3.83192C109.448 3.83192 103.806 1.81418 100.178 9.88513C96.5508 17.9561 90.9082 26.8341 90.9082 26.8341L94.1326 27.6412C94.1326 27.6412 94.9387 21.9916 96.9539 21.1845L96.1478 28.4483C96.1478 28.4483 120.331 36.9228 131.213 27.6412L130.81 24.8164C130.81 24.8164 132.422 25.2199 132.422 27.6412L133.631 26.4306C133.631 26.4306 132.422 24.0093 128.795 20.7809C126.414 18.662 125.595 14.6306 125.314 12.1102C125.104 10.0056 124.263 8.01387 122.902 6.39623C120.491 3.59901 116.099 0.625955 109.448 3.83192Z" fill="#2F2E41"/>
<path d="M143.695 49.5023C143.695 49.5023 154.314 58.5704 155.875 63.8861C157.437 69.2018 149.941 69.8272 149.941 69.8272L133.702 71.3907C133.702 71.3907 133.389 78.8952 130.579 79.8333C127.768 80.7714 130.008 67.4234 130.008 67.4234L145.881 62.948L138.698 55.4435L143.695 49.5023Z" fill="#FBBEBE"/>
<path d="M94.0395 58.8831L92.7903 75.4557L85.9197 103.598C85.9197 103.598 79.6736 116.418 84.9828 116.731C90.2919 117.043 89.9796 104.536 89.9796 104.536L99.9733 77.9572L100.91 59.8211L94.0395 58.8831Z" fill="#FBBEBE"/>
<path d="M111.529 29.8028C117.22 29.8028 121.835 25.183 121.835 19.4841C121.835 13.7851 117.22 9.16527 111.529 9.16527C105.837 9.16527 101.223 13.7851 101.223 19.4841C101.223 25.183 105.837 29.8028 111.529 29.8028Z" fill="#FBBEBE"/>
<path d="M106.843 24.4871C106.843 24.4871 110.59 37.9328 104.656 41.3724C98.7227 44.812 119.647 47.3135 125.268 36.9947C125.268 36.9947 115.275 33.5551 118.085 24.4871H106.843Z" fill="#FBBEBE"/>
<path d="M99.6601 42.9358L97.7863 42.3105C97.7863 42.3105 94.0387 43.8739 94.0387 46.6881C94.0387 49.5023 93.4141 60.7592 93.4141 60.7592L101.846 61.6973L99.6601 42.9358Z" fill="#0099FF"/>
<path d="M136.363 105.287C124.834 106.997 108.031 108.378 90.6049 105.978C90.6035 105.805 90.6035 105.637 90.6035 105.473C90.6035 104.498 90.6408 103.533 90.7155 102.579C91.6082 90.8364 97.6503 81.0463 99.9882 77.6536C100.106 77.4812 100.215 77.326 100.313 77.1881C100.69 76.6578 100.91 76.3776 100.91 76.3776C100.91 76.3776 119.023 76.0816 128.392 79.8335C128.844 80.0234 129.257 80.2941 129.612 80.6325C133.105 83.8599 135.158 94.3384 136.363 105.287Z" fill="#2F2E41"/>
<path d="M129.641 38.5582C129.641 38.5582 133.701 36.3693 137.761 41.0597L145.881 50.4404L139.635 57.3196L127.768 50.1277L129.641 38.5582Z" fill="#0099FF"/>
<path d="M100.392 19.5495C104.04 16.9058 106.993 13.8608 108.947 10.2387C108.947 10.2387 115.642 17.6873 119.734 18.0598C123.826 18.4322 120.106 9.12139 120.106 9.12139L112.666 7.25923L105.599 8.0041L100.02 11.7284L100.392 19.5495Z" fill="#2F2E41"/>
<path d="M123.708 36.3693C123.708 36.3693 119.338 43.2881 106.22 39.9851L98.7764 42.0376L97.7871 42.3105C97.7871 42.3105 98.724 61.0719 101.222 64.5115C103.721 67.9511 103.096 69.8272 102.472 70.1399C101.847 70.4526 100.286 69.8272 101.222 71.3907C102.159 72.9541 103.409 72.016 102.159 72.9541C100.91 73.8922 100.286 77.3318 100.286 77.3318L129.642 81.0841C129.642 81.0841 128.705 68.8891 131.203 62.6353C133.702 56.3815 134.326 53.88 134.326 53.88L132.453 38.2455L123.708 36.3693Z" fill="#0099FF"/>
<path d="M62.695 30.2479H22.5098V80.542H62.695V30.2479Z" fill="#E6E6E6"/>
<path d="M33.9197 34.4869H25.3086V40.2348H33.9197V34.4869Z" fill="white"/>
<path d="M58.6772 45.6953H25.3809V47.7071H58.6772V45.6953Z" fill="white"/>
<path d="M58.6772 51.0121H25.3809V53.0239H58.6772V51.0121Z" fill="white"/>
<path d="M58.6772 56.3289H25.3809V58.3407H58.6772V56.3289Z" fill="white"/>
<path d="M58.6772 61.6458H25.3809V63.6575H58.6772V61.6458Z" fill="white"/>
<path d="M58.6772 66.9626H25.3809V68.9743H58.6772V66.9626Z" fill="white"/>
<path d="M70.5904 80.4701C70.5886 82.3681 69.9028 84.2016 68.659 85.6339C67.4152 87.0661 65.697 88.0009 63.8201 88.2663C61.9431 88.5318 60.0335 88.1102 58.4422 87.0789C56.8508 86.0477 55.6846 84.4761 55.1578 82.6529C54.6309 80.8298 54.7789 78.8775 55.5745 77.1548C56.3701 75.4321 57.7599 74.0548 59.4885 73.2758C61.2171 72.4969 63.1684 72.3687 64.9838 72.9147C66.7992 73.4608 68.3568 74.6445 69.3705 76.2483C70.1676 77.5118 70.5906 78.9757 70.5904 80.4701Z" fill="#0099FF"/>
<path d="M69.3698 76.2483L61.5997 84.0266C61.1113 83.2696 58.3906 79.7516 58.3906 79.7516C58.7393 79.3988 59.1114 79.0699 59.5043 78.7673L61.7604 81.7792L68.4599 75.0714C68.7996 75.434 69.1043 75.8281 69.3698 76.2483Z" fill="white"/>
<rect opacity="0.4" x="48.6191" y="16.0895" width="8.52941" height="8.52941" rx="4.2647" fill="#0099FF"/>
</g>
<defs>
<clipPath id="clip0">
<rect width="140.735" height="114.294" fill="white" transform="translate(15.3535 2.44243)"/>
</clipPath>
</defs>
</svg>
