<svg width="159" height="128" viewBox="0 0 159 128" fill="none" xmlns="http://www.w3.org/2000/svg">
<g clip-path="url(#clip0)">
<path d="M9.50464 120.909C9.50464 120.909 2.69946 120.498 3.50121 125.277C3.50121 125.277 3.34021 126.12 4.10493 126.504C4.10493 126.504 4.11781 126.149 4.80364 126.27C5.04768 126.312 5.29575 126.324 5.5426 126.306C5.87678 126.283 6.19441 126.152 6.44738 125.932C6.44738 125.932 8.35998 125.14 9.10538 122.008C9.10538 122.008 9.65597 121.324 9.63343 121.148L8.48555 121.632C8.48555 121.632 8.87677 122.462 8.56927 123.151C8.56927 123.151 8.53063 121.662 8.31007 121.699C8.26499 121.708 7.7144 121.988 7.7144 121.988C7.7144 121.988 8.38896 123.44 7.87539 124.485C7.87539 124.485 8.06858 122.703 7.49867 122.091L6.6937 122.566C6.6937 122.566 7.48418 124.059 6.94807 125.277C6.94807 125.277 7.08491 123.408 6.52466 122.68L5.79214 123.253C5.79214 123.253 6.53271 124.725 6.08032 125.735C6.08032 125.735 6.02236 123.559 5.63276 123.395C5.63276 123.395 4.98878 123.961 4.8938 124.201C4.8938 124.201 5.40253 125.269 5.08699 125.833C5.08699 125.833 4.8938 124.382 4.73602 124.382C4.73602 124.382 4.09205 125.341 4.03087 125.995C4.03087 125.995 4.05824 125.014 4.57986 124.283C4.21167 124.353 3.87189 124.529 3.60263 124.79C3.60263 124.79 3.70245 124.111 4.73763 124.051C4.73763 124.051 5.26569 123.324 5.40737 123.278C5.40737 123.278 4.37701 123.193 3.75236 123.47C3.75236 123.47 4.30134 122.825 5.59573 123.12L6.3202 122.528C6.3202 122.528 4.96302 122.343 4.38828 122.548C4.38828 122.548 5.04996 121.982 6.515 122.395L7.30226 121.924C7.30226 121.924 6.14471 121.674 5.45566 121.762C5.45566 121.762 6.18335 121.369 7.53247 121.795L8.09595 121.541C8.09595 121.541 7.24752 121.38 6.99959 121.348C6.75166 121.316 6.73878 121.253 6.73878 121.253C7.27568 121.163 7.82689 121.224 8.331 121.43C8.331 121.43 9.52557 120.985 9.50464 120.909Z" fill="#59FF91"/>
<path opacity="0.1" d="M4.81691 127.737C7.47722 127.737 9.63383 127.371 9.63383 126.92C9.63383 126.47 7.47722 126.104 4.81691 126.104C2.15661 126.104 0 126.47 0 126.92C0 127.371 2.15661 127.737 4.81691 127.737Z" fill="#6C63FF"/>
<path opacity="0.1" d="M82.6405 126.274C91.8654 126.274 99.3436 125.522 99.3436 124.595C99.3436 123.667 91.8654 122.916 82.6405 122.916C73.4157 122.916 65.9375 123.667 65.9375 124.595C65.9375 125.522 73.4157 126.274 82.6405 126.274Z" fill="#6C63FF"/>
<path opacity="0.1" d="M32.0356 124.606C39.0376 124.606 44.7138 124.255 44.7138 123.822C44.7138 123.389 39.0376 123.038 32.0356 123.038C25.0336 123.038 19.3574 123.389 19.3574 123.822C19.3574 124.255 25.0336 124.606 32.0356 124.606Z" fill="#6C63FF"/>
<path opacity="0.1" d="M54.5457 6.26075C59.2483 2.0672 66.6314 1.20752 73.3496 1.54139C94.4542 2.59139 113.505 12.7995 129.984 24.3462C135.95 28.5253 141.823 33.0301 145.695 38.7866C153.584 50.5027 151.24 66.7349 140.279 76.3882C136.549 79.672 132.028 82.1946 127.387 84.422C119.134 88.3914 110.23 91.5769 100.865 92.4866C94.1854 93.1317 87.4237 92.6075 80.7843 91.7043C62.2315 89.1817 44.0215 83.6075 28.7594 74.0753C22.0653 69.8817 15.7544 64.6882 12.9949 57.922C10.2355 51.1559 12.0016 42.5817 18.8374 38.5769C21.6644 36.9204 25.0453 36.172 28.3537 35.4704C33.2253 34.4366 38.1743 33.4172 42.571 31.314C47.111 29.143 52.4866 24.9446 51.5866 20.1398C50.6239 14.9833 49.8495 10.4543 54.5457 6.26075Z" fill="#0099FF"/>
<path opacity="0.9" d="M93.5155 63.9269V33.1301H97.7014V23.9366H67.7083V33.1301H71.8942V63.9269C66.1136 66.1264 61.1372 70.0348 57.6252 75.1336C54.1133 80.2323 52.2318 86.2804 52.2305 92.4753C52.2305 109.338 65.8762 123.008 82.7081 123.008C99.5399 123.008 113.184 109.338 113.184 92.4753C113.183 86.2798 111.3 80.2312 107.788 75.1324C104.275 70.0335 99.2972 66.1255 93.5155 63.9269Z" fill="#9CD7FF"/>
<path opacity="0.1" d="M93.5145 33.035H71.8867V33.4495H93.5145V33.035Z" fill="black"/>
<path d="M65.6543 91.6559C65.6543 91.6559 84.0075 91.3334 93.1841 86.7317C102.361 82.1301 107.604 86.2382 107.112 89.0301C106.619 91.8221 104 97.2366 93.5125 97.9011C83.0254 98.5656 65.6543 91.6559 65.6543 91.6559Z" fill="#0077C7"/>
<path opacity="0.1" d="M65.6543 91.6559C65.6543 91.6559 84.0075 91.3334 93.1841 86.7317C102.361 82.1301 107.604 86.2382 107.112 89.0301C106.619 91.8221 104 97.2366 93.5125 97.9011C83.0254 98.5656 65.6543 91.6559 65.6543 91.6559Z" fill="#0099FF"/>
<path d="M57.796 88.7043C57.796 88.7043 55.8352 115.954 81.5538 116.446C107.272 116.938 107.115 89.0269 107.115 89.0269C107.115 89.0269 97.6161 99.3672 75.164 90.8318C75.164 90.8382 63.5306 87.7189 57.796 88.7043Z" fill="#0099FF"/>
<path opacity="0.1" d="M107.03 89.1253C106.516 95.4027 103.185 115.053 81.5625 114.638C60.3661 114.237 57.9657 95.672 57.7774 89.1414C57.6599 92.6462 57.7645 115.988 81.5577 116.445C107.283 116.929 107.119 89.0253 107.119 89.0253C107.119 89.0253 107.086 89.0656 107.03 89.1253Z" fill="black"/>
<path opacity="0.3" d="M81.7085 80.2898C83.5517 80.2898 85.0459 78.7929 85.0459 76.9463C85.0459 75.0997 83.5517 73.6027 81.7085 73.6027C79.8653 73.6027 78.3711 75.0997 78.3711 76.9463C78.3711 78.7929 79.8653 80.2898 81.7085 80.2898Z" fill="#0099FF"/>
<path opacity="0.3" d="M83.6144 65.6398C84.7551 65.6398 85.6799 64.7133 85.6799 63.5705C85.6799 62.4276 84.7551 61.5011 83.6144 61.5011C82.4736 61.5011 81.5488 62.4276 81.5488 63.5705C81.5488 64.7133 82.4736 65.6398 83.6144 65.6398Z" fill="#0099FF"/>
<path opacity="0.3" d="M79.005 53.6962C80.1458 53.6962 81.0705 52.7697 81.0705 51.6269C81.0705 50.484 80.1458 49.5575 79.005 49.5575C77.8642 49.5575 76.9395 50.484 76.9395 51.6269C76.9395 52.7697 77.8642 53.6962 79.005 53.6962Z" fill="#0099FF"/>
<path opacity="0.2" d="M61.3078 79.5253C61.1307 80.935 61.1661 82.6995 62.4234 83.3576C61.3689 82.8059 65.6916 76.5511 65.0782 75.2737C63.7661 72.5479 61.4688 78.2156 61.3078 79.5253Z" fill="white"/>
<path opacity="0.3" d="M77.3374 17.7914C79.1806 17.7914 80.6748 16.2944 80.6748 14.4479C80.6748 12.6013 79.1806 11.1043 77.3374 11.1043C75.4942 11.1043 74 12.6013 74 14.4479C74 16.2944 75.4942 17.7914 77.3374 17.7914Z" fill="#0099FF"/>
<path opacity="0.3" d="M87.3481 11.2011C88.7182 11.2011 89.829 10.0883 89.829 8.71559C89.829 7.34289 88.7182 6.2301 87.3481 6.2301C85.9779 6.2301 84.8672 7.34289 84.8672 8.71559C84.8672 10.0883 85.9779 11.2011 87.3481 11.2011Z" fill="#0099FF"/>
<path opacity="0.3" d="M80.1978 3.32044C80.91 3.32044 81.4873 2.74202 81.4873 2.02851C81.4873 1.31499 80.91 0.736572 80.1978 0.736572C79.4856 0.736572 78.9082 1.31499 78.9082 2.02851C78.9082 2.74202 79.4856 3.32044 80.1978 3.32044Z" fill="#0099FF"/>
<path opacity="0.9" d="M45.6919 43.1849H18.7207V51.1995H22.8309V113.725C22.8146 114.969 23.0451 116.204 23.5091 117.358C23.973 118.512 24.6611 119.563 25.5335 120.448C26.4058 121.334 27.445 122.037 28.5908 122.517C29.7366 122.996 30.966 123.243 32.2079 123.243C33.4498 123.243 34.6792 122.996 35.825 122.517C36.9708 122.037 38.01 121.334 38.8823 120.448C39.7547 119.563 40.4428 118.512 40.9067 117.358C41.3707 116.204 41.6012 114.969 41.5849 113.725V51.1995H45.6919V43.1849Z" fill="#9CD7FF"/>
<path d="M29.0781 65.3656C29.0781 65.3656 35.7529 62.9769 37.6108 64.6753C37.6108 64.6753 34.9077 68.6559 32.4187 68.4962C29.9298 68.3366 29.0781 65.3656 29.0781 65.3656Z" fill="#0077C7"/>
<path d="M37.6075 64.6817V110.062C37.6075 110.815 37.4595 111.561 37.1719 112.256C36.8844 112.951 36.4629 113.583 35.9316 114.116C35.4003 114.648 34.7695 115.07 34.0754 115.358C33.3812 115.646 32.6371 115.795 31.8858 115.795C30.3683 115.795 28.9129 115.191 27.8399 114.116C26.7669 113.041 26.1641 111.583 26.1641 110.062V64.6817C26.1641 64.6817 28.9187 63.9382 31.5139 65.5317C34.1091 67.1253 37.6075 64.6817 37.6075 64.6817Z" fill="#0099FF"/>
<path opacity="0.1" d="M41.5822 51.1495H22.8281V51.5188H41.5822V51.1495Z" fill="black"/>
<path opacity="0.1" d="M31.8858 113.035C31.1342 113.035 30.3901 112.887 29.6958 112.599C29.0015 112.31 28.3707 111.888 27.8393 111.356C27.308 110.823 26.8866 110.191 26.5991 109.495C26.3117 108.8 26.1639 108.054 26.1641 107.301V110.167C26.1641 111.688 26.7669 113.146 27.8399 114.221C28.9129 115.296 30.3683 115.9 31.8858 115.9C33.4032 115.9 34.8586 115.296 35.9316 114.221C37.0046 113.146 37.6075 111.688 37.6075 110.167V107.301C37.6077 108.054 37.4598 108.8 37.1724 109.495C36.8849 110.191 36.4635 110.823 35.9322 111.356C35.4009 111.888 34.77 112.31 34.0757 112.599C33.3814 112.887 32.6373 113.035 31.8858 113.035Z" fill="black"/>
<path opacity="0.3" d="M31.8882 60.2253C32.532 60.2253 33.0538 59.7025 33.0538 59.0576C33.0538 58.4126 32.532 57.8898 31.8882 57.8898C31.2445 57.8898 30.7227 58.4126 30.7227 59.0576C30.7227 59.7025 31.2445 60.2253 31.8882 60.2253Z" fill="#6C63FF"/>
<path opacity="0.3" d="M35.7012 55.6607C36.1111 55.6607 36.4433 55.3278 36.4433 54.9172C36.4433 54.5065 36.1111 54.1736 35.7012 54.1736C35.2913 54.1736 34.959 54.5065 34.959 54.9172C34.959 55.3278 35.2913 55.6607 35.7012 55.6607Z" fill="#6C63FF"/>
<path opacity="0.3" d="M30.5098 54.1753C30.9196 54.1753 31.2519 53.8424 31.2519 53.4318C31.2519 53.0211 30.9196 52.6882 30.5098 52.6882C30.0999 52.6882 29.7676 53.0211 29.7676 53.4318C29.7676 53.8424 30.0999 54.1753 30.5098 54.1753Z" fill="#6C63FF"/>
<path opacity="0.2" d="M24.2785 73.9527C24.1014 75.3624 24.1368 77.1269 25.3942 77.785C24.338 77.2333 28.6623 70.9801 28.0489 69.7011C26.7336 66.9785 24.4395 72.6446 24.2785 73.9527Z" fill="white"/>
<path opacity="0.3" d="M34.3065 38.1704C35.8705 38.1704 37.1383 36.9002 37.1383 35.3333C37.1383 33.7664 35.8705 32.4962 34.3065 32.4962C32.7425 32.4962 31.4746 33.7664 31.4746 35.3333C31.4746 36.9002 32.7425 38.1704 34.3065 38.1704Z" fill="#0099FF"/>
<path opacity="0.3" d="M25.8109 32.5785C26.9739 32.5785 27.9167 31.634 27.9167 30.4688C27.9167 29.3037 26.9739 28.3591 25.8109 28.3591C24.6479 28.3591 23.7051 29.3037 23.7051 30.4688C23.7051 31.634 24.6479 32.5785 25.8109 32.5785Z" fill="#0099FF"/>
<path opacity="0.3" d="M31.878 25.8914C32.4826 25.8914 32.9727 25.4004 32.9727 24.7946C32.9727 24.1889 32.4826 23.6979 31.878 23.6979C31.2733 23.6979 30.7832 24.1889 30.7832 24.7946C30.7832 25.4004 31.2733 25.8914 31.878 25.8914Z" fill="#0099FF"/>
<path d="M119.359 61.7414C119.375 61.7269 119.39 61.7108 119.404 61.6963C119.39 61.7108 119.375 61.7269 119.359 61.7414Z" fill="#FFB0B1"/>
</g>
<defs>
<clipPath id="clip0">
<rect width="159" height="127" fill="white" transform="translate(0 0.736572)"/>
</clipPath>
</defs>
</svg>
