<svg width="225" height="138" viewBox="0 0 225 138" fill="none" xmlns="http://www.w3.org/2000/svg">
<g clip-path="url(#clip0)">
<g opacity="0.5">
<path opacity="0.5" d="M225.001 0.736542H134.252V89.151H225.001V0.736542Z" fill="url(#paint0_linear)"/>
</g>
<path d="M224.545 1.41679H134.707V88.4708H224.545V1.41679Z" fill="white"/>
<g opacity="0.5">
<path opacity="0.5" d="M215.424 8.64528H143.828V63.9072H215.424V8.64528Z" fill="#0099FF"/>
</g>
<g opacity="0.5">
<path opacity="0.5" d="M193.186 46.7003C193.147 44.5204 192.252 42.4423 190.691 40.9109C189.285 39.5379 187.395 37.9624 185.346 37.0092H185.334C184.466 36.5893 183.537 36.3101 182.581 36.1822V32.7995C183.279 32.1772 183.857 31.4321 184.284 30.6016V30.8724C184.284 30.8724 187.547 27.5952 187.472 23.7494C187.52 21.4399 186.403 18.8987 182.657 16.7194C173.961 11.6744 170.629 19.0104 169.995 20.7079C169.954 20.7901 169.923 20.8769 169.903 20.9664L169.878 21.0449C169.868 21.1245 169.868 21.2052 169.878 21.2848V21.3096C169.876 21.3523 169.876 21.3951 169.878 21.4378C169.878 22.0043 170.363 22.5254 171.184 22.9513C170.539 23.9097 170.122 25.0024 169.966 26.1455C169.811 27.2887 169.92 28.4521 170.286 29.5468C170.652 30.6414 171.265 31.6384 172.078 32.4612C172.892 33.2841 173.883 33.9112 174.978 34.2944V36.4654L174.809 36.1491C174.809 36.1491 173.647 36.8417 172.147 37.9045C169.635 39.6847 166.175 42.505 165.655 44.8352C164.823 48.557 165.655 64.3083 165.655 64.3083L193.534 64.7218L193.186 46.7003ZM184.325 30.5747L184.336 30.5644L184.325 30.5747ZM169.951 21.5556V21.568V21.5556ZM170.003 21.6776V21.6942V21.6776ZM170.07 21.7976L170.082 21.8182L170.07 21.7976ZM170.151 21.9154L170.168 21.9382L170.151 21.9154ZM170.247 22.0312L170.269 22.056L170.247 22.0312ZM170.357 22.1449L170.384 22.1718L170.357 22.1449ZM171.301 22.7652L171.33 22.7797L171.301 22.7652ZM170.482 22.2504L170.515 22.2793L170.482 22.2504ZM170.619 22.36L170.658 22.3889L170.619 22.36ZM170.771 22.4654L170.816 22.4964L170.771 22.4654ZM170.935 22.5688L170.989 22.5998L170.935 22.5688ZM171.112 22.668L171.172 22.7011L171.112 22.668Z" fill="url(#paint1_linear)"/>
</g>
<path d="M182.499 32.9029H175.098V43.696H182.499V32.9029Z" fill="#FDA57D"/>
<path opacity="0.05" d="M175.344 34.619C176.117 34.8919 176.45 35.109 177.317 35.109C179.14 35.1093 180.899 34.4374 182.252 33.2234V33.1469H175.344V34.619Z" fill="black"/>
<path d="M177.565 34.8651C181.653 34.8651 184.967 31.5704 184.967 27.5063C184.967 23.4422 181.653 20.1476 177.565 20.1476C173.478 20.1476 170.164 23.4422 170.164 27.5063C170.164 31.5704 173.478 34.8651 177.565 34.8651Z" fill="#FDA57D"/>
<path d="M176.75 24.1898C180.403 24.1898 183.365 23.0706 183.365 21.69C183.365 20.3095 180.403 19.1903 176.75 19.1903C173.096 19.1903 170.135 20.3095 170.135 21.69C170.135 23.0706 173.096 24.1898 176.75 24.1898Z" fill="black"/>
<path d="M178.073 22.6122L184.157 26.2947V30.8435C184.157 30.8435 192.095 22.8665 182.571 17.3439C173.046 11.8212 170.135 21.5536 170.135 21.5536C170.135 21.5536 172.78 23.6646 178.073 22.6122Z" fill="black"/>
<path d="M184.438 28.7324C184.846 28.7324 185.178 28.1835 185.178 27.5063C185.178 26.8292 184.846 26.2802 184.438 26.2802C184.029 26.2802 183.697 26.8292 183.697 27.5063C183.697 28.1835 184.029 28.7324 184.438 28.7324Z" fill="#FDA57D"/>
<g opacity="0.05">
<path opacity="0.05" d="M184.156 26.2947L180.105 23.8445C179.005 24.0799 177.883 24.1956 176.757 24.1898C173.201 24.1898 170.311 23.1291 170.15 21.7996V21.8224C170.148 21.8637 170.148 21.9051 170.15 21.9464C170.15 23.3276 173.112 24.4462 176.766 24.4462C177.894 24.4528 179.021 24.337 180.124 24.1009L184.173 26.5511L184.156 26.2947Z" fill="black"/>
<path opacity="0.05" d="M184.156 30.8518V31.1144C184.156 31.1144 187.328 27.9261 187.255 24.1836C187.18 27.8103 184.156 30.8518 184.156 30.8518Z" fill="black"/>
</g>
<path d="M174.932 36.2483C174.932 36.2483 166.835 41.0783 166.026 44.7008C165.217 48.3234 166.026 63.6487 166.026 63.6487L193.152 64.0519L192.806 46.5142C192.767 44.3921 191.894 42.3696 190.373 40.8798C188.348 38.9011 185.285 36.484 182.219 36.2483L178.576 43.0922L174.932 36.2483Z" fill="#4D8AF0"/>
<path opacity="0.05" d="M171.192 44.4465C171.192 44.4465 169.075 55.494 170.928 58.92L171.192 44.4465Z" fill="black"/>
<path opacity="0.05" d="M186.531 44.4465C186.531 44.4465 188.648 55.494 186.795 58.92L186.531 44.4465Z" fill="black"/>
<path d="M174.896 36.2897L182.585 36.1822L177.544 48.9168L174.896 36.2897Z" fill="white"/>
<path d="M174.896 35.5019V36.2897H182.57L182.585 35.5019H174.896Z" fill="white"/>
<path d="M179.131 35.5019H178.072V36.5543H179.131V35.5019Z" fill="black"/>
<path d="M174.897 36.2897L173.311 37.8694L176.75 43.696L174.897 36.2897Z" fill="#4D8AF0"/>
<path d="M182.303 36.8169L183.628 38.1319L179.658 43.392L182.303 36.8169Z" fill="#4D8AF0"/>
<path opacity="0.1" d="M174.897 36.2897L173.311 37.8694L176.75 43.696L174.897 36.2897Z" fill="white"/>
<path opacity="0.1" d="M182.303 36.8169L183.628 38.1319L179.658 43.392L182.303 36.8169Z" fill="white"/>
<path d="M178.601 36.0271L174.369 53.7675L177.014 57.7125L180.454 53.7675L178.601 36.0271Z" fill="black"/>
<path d="M212.106 71.6691H148.887V74.5638H212.106V71.6691Z" fill="#E0E0E0"/>
<path d="M202.02 77.4585H158.973V80.3532H202.02V77.4585Z" fill="#E0E0E0"/>
<g opacity="0.5">
<path opacity="0.5" d="M90.7486 24.4152H0V112.83H90.7486V24.4152Z" fill="url(#paint2_linear)"/>
</g>
<path d="M90.2929 25.0954H0.455078V112.149H90.2929V25.0954Z" fill="white"/>
<g opacity="0.5">
<path opacity="0.5" d="M81.1719 32.3239H9.57617V87.5858H81.1719V32.3239Z" fill="#0099FF"/>
</g>
<g opacity="0.5">
<path opacity="0.5" d="M62.0033 77.2704H63.1596L62.7977 73.59H62.7582C62.9787 71.3404 63.3093 61.3723 52.5309 57.4003L51.568 56.7697L51.4952 56.8338V54.1438C52.2066 53.5146 52.7953 52.7604 53.2317 51.919V52.194C54.1799 51.1773 54.9655 50.0218 55.5608 48.7679C55.0025 49.8114 54.3089 50.7777 53.4979 51.6419V51.6171C54.8517 50.0809 60.3875 42.9496 51.5659 37.8321C41.6297 32.0696 39.7539 41.7379 39.7539 41.7379L40.5463 42.7924C40.5463 42.7924 38.6226 46.6217 38.6226 48.4288C38.6232 50.016 39.1184 51.5641 40.04 52.86C40.9617 54.1559 42.2647 55.1361 43.7696 55.6656V57.9606C43.0521 58.2212 33.0806 62.0567 33.0806 73.5879L31.6914 77.2683L32.1552 77.4751V87.7327H54.8226C54.8226 87.7327 56.2117 76.8051 55.748 73.1247L57.1371 74.0448V77.2662H57.4449V77.3469H57.3555L57.4449 77.6446V87.5031H61.995V77.6488L62.047 77.351H61.995L62.0033 77.2704ZM36.2873 78.114L36.3205 77.2704L36.2873 78.114Z" fill="url(#paint3_linear)"/>
</g>
<path d="M51.3231 54.3981H43.9219V65.1912H51.3231V54.3981Z" fill="#FDA57D"/>
<path opacity="0.05" d="M44.1699 56.1143C44.9435 56.3872 45.2763 56.6043 46.1434 56.6043C47.9664 56.6047 49.7248 55.9328 51.0783 54.7186V54.6421H44.1699V56.1143Z" fill="black"/>
<path d="M46.3915 56.3603C50.479 56.3603 53.7927 53.0657 53.7927 49.0015C53.7927 44.9374 50.479 41.6428 46.3915 41.6428C42.3039 41.6428 38.9902 44.9374 38.9902 49.0015C38.9902 53.0657 42.3039 56.3603 46.3915 56.3603Z" fill="#FDA57D"/>
<path d="M46.8962 45.4224L52.9811 47.7899V52.3387C52.9811 52.3387 60.9251 44.3721 51.3944 38.8432C42.8307 33.8808 41.2793 39.8584 40.2021 41.008C40.177 41.0347 40.1574 41.0661 40.1446 41.1003C40.1317 41.1345 40.1258 41.1709 40.1271 41.2075C40.1285 41.244 40.1371 41.2799 40.1525 41.3131C40.1678 41.3463 40.1896 41.3761 40.2166 41.4009C41.2751 42.3913 42.1798 46.3612 46.8962 45.4224Z" fill="#4D4545"/>
<path d="M61.398 76.6459H57.0371V87.4494H61.398V76.6459Z" fill="#FDA57D"/>
<path d="M56.7422 73.5589V76.6459H62.5068L62.1553 73.1185L56.7422 73.5589Z" fill="white"/>
<path d="M32.791 76.6459V87.6706H36.3388L36.7505 77.4544L32.791 76.6459Z" fill="#FDA57D"/>
<path d="M46.5396 61.213L43.965 58.1261C43.965 58.1261 33.6836 61.6535 33.6836 73.1185L36.7884 76.6459L36.3455 87.6706H54.5293C54.5293 87.6706 55.8602 76.2055 55.4173 72.6781L56.7482 73.561H62.0698C62.0698 73.561 64.1162 61.213 51.256 57.2452L46.5396 61.213Z" fill="#235067"/>
<path d="M33.6765 73.1185L32.3477 76.6459L36.7023 78.6309L36.7813 76.6459L33.6765 73.1185Z" fill="white"/>
<path opacity="0.05" d="M42.1367 59.3625L43.8794 63.2393L46.3687 61.2048L43.9647 58.3887L42.1367 59.3625Z" fill="black"/>
<path d="M42.1367 59.0999L43.8794 62.9747L46.3687 60.9422L43.9647 58.1261L42.1367 59.0999Z" fill="white"/>
<path opacity="0.05" d="M51.3937 57.2597L52.9804 58.3121L48.4844 62.5198L46.9102 61.1613L51.3937 57.2597Z" fill="black"/>
<path d="M51.3937 56.9971L52.9804 58.0475L48.4844 62.2572L46.9102 60.8988L51.3937 56.9971Z" fill="white"/>
<path opacity="0.05" d="M37.1074 75.6721C37.1026 72.2562 38.2174 68.9318 40.283 66.2023L37.1074 75.6721Z" fill="black"/>
<path opacity="0.05" d="M54.834 73.042V71.4624L56.4207 72.5148L55.3622 72.2522L54.834 73.042Z" fill="black"/>
<path opacity="0.05" d="M56.9512 76.7245L57.0364 77.0078H61.3973L61.4472 76.7245H56.9512Z" fill="black"/>
<path opacity="0.05" d="M32.791 76.8486V77.1505L36.6798 78.8108L36.58 78.5647L32.791 76.8486Z" fill="black"/>
<path opacity="0.05" d="M55.2225 49.3282C54.6878 50.3281 54.0236 51.2541 53.2469 52.0823V47.5273L47.1621 45.1599C42.6015 46.0676 41.882 42.4202 40.6031 41.252C40.5483 41.2024 40.4761 41.1763 40.4021 41.1794C40.3281 41.1825 40.2583 41.2145 40.2079 41.2686C40.1828 41.2953 40.1633 41.3266 40.1504 41.3608C40.1376 41.3951 40.1316 41.4315 40.133 41.468C40.1344 41.5045 40.143 41.5404 40.1583 41.5736C40.1737 41.6068 40.1955 41.6366 40.2225 41.6614C41.2831 42.6498 42.1856 46.6238 46.9042 45.6809L52.989 48.0484V52.5972C53.897 51.6273 54.6502 50.5249 55.2225 49.3282Z" fill="black"/>
<path d="M53.2618 50.2277C53.6707 50.2277 54.0021 49.6787 54.0021 49.0015C54.0021 48.3244 53.6707 47.7754 53.2618 47.7754C52.8529 47.7754 52.5215 48.3244 52.5215 49.0015C52.5215 49.6787 52.8529 50.2277 53.2618 50.2277Z" fill="#FDA57D"/>
<path d="M75.479 94.2065H12.2598V97.1011H75.479V94.2065Z" fill="#E0E0E0"/>
<path d="M65.393 99.9958H22.3457V102.891H65.393V99.9958Z" fill="#E0E0E0"/>
<g opacity="0.5">
<path opacity="0.5" d="M158.325 49.322H67.5762V137.737H158.325V49.322Z" fill="url(#paint4_linear)"/>
</g>
<path d="M157.869 50.0023H68.0312V137.056H157.869V50.0023Z" fill="white"/>
<g opacity="0.5">
<path opacity="0.5" d="M148.748 57.2328H77.1523V112.495H148.748V57.2328Z" fill="#0099FF"/>
</g>
<g opacity="0.5">
<path opacity="0.5" d="M119.261 91.7294L119.469 91.5743L119.766 91.3552L133.649 81.1017L128.877 62.1228C128.877 62.1228 128.877 62.1001 128.877 62.0608C128.916 61.4819 129.139 57.0013 126.703 57.8097C124.324 58.5975 125.206 61.9078 125.377 62.4702L125.404 62.5529L128.44 78.513L118.791 84.1081L117.451 83.9592C118.978 81.8777 119.788 79.3623 119.762 76.7866C119.762 70.8317 115.684 66.0038 110.651 66.0038C105.619 66.0038 101.54 70.8317 101.54 76.7866C101.54 81.2465 103.828 85.0757 107.091 86.7112L103.637 88.4294V88.4481C102.647 88.2413 98.8911 88.3033 100.413 102.008C100.787 105.328 99.9926 108.674 98.1653 111.477L97.2129 112.795L120.993 112.939H121.066C121.066 112.939 117.699 107.574 119.261 91.7294Z" fill="url(#paint5_linear)"/>
</g>
<path d="M104.057 88.5432C104.057 88.5432 99.1488 86.4362 100.58 100.916C100.968 104.776 100.024 108.653 97.9031 111.91L97.6016 112.371H102.164L105.6 108.752L104.057 88.5432Z" fill="#3AD29F"/>
<path d="M128.563 62.6666C128.563 62.6666 128.563 62.6459 128.563 62.6066L125.132 63.0078L125.156 63.0905L128.132 78.7343L117.926 84.6539L118.342 92.2649L133.225 81.2713L128.563 62.6666Z" fill="#3AD29F"/>
<path d="M110.703 87.6106C115.635 87.6106 119.633 82.8784 119.633 77.0409C119.633 71.2033 115.635 66.4711 110.703 66.4711C105.771 66.4711 101.773 71.2033 101.773 77.0409C101.773 82.8784 105.771 87.6106 110.703 87.6106Z" fill="#FFFF00"/>
<path d="M115.169 80.6344H108.791V89.9367H115.169V80.6344Z" fill="#FDA57D"/>
<path d="M110.704 88.4667L109.003 85.9297L103.9 88.4667V92.664C103.9 92.664 102.047 95.9102 103.557 99.6485C103.141 105.144 102.014 112.348 102.014 112.348L120.919 112.486C120.919 112.486 117.517 107.063 119.218 90.9975L118.802 84.2321L114.976 83.8186L110.704 88.4667Z" fill="#3AD29F"/>
<path opacity="0.05" d="M118.783 84.23L119.21 84.6518L119.634 91.32L119.139 91.686L118.783 84.23Z" fill="black"/>
<path opacity="0.05" d="M109.004 82.1149C109.669 82.3485 109.958 82.5284 110.705 82.5284C112.276 82.5287 113.791 81.9496 114.958 80.9032V80.8371H109.004V82.1149Z" fill="black"/>
<path d="M110.917 82.3258C114.44 82.3258 117.295 79.4866 117.295 75.9843C117.295 72.482 114.44 69.6428 110.917 69.6428C107.395 69.6428 104.539 72.482 104.539 75.9843C104.539 79.4866 107.395 82.3258 110.917 82.3258Z" fill="#FDA57D"/>
<path d="M117.297 77.0409C117.649 77.0409 117.935 76.5678 117.935 75.9843C117.935 75.4008 117.649 74.9277 117.297 74.9277C116.944 74.9277 116.658 75.4008 116.658 75.9843C116.658 76.5678 116.944 77.0409 117.297 77.0409Z" fill="#FDA57D"/>
<path opacity="0.05" d="M105.347 73.9994V74.2971H116.296V74.5948H105.197L105.347 73.9994Z" fill="black"/>
<path d="M116.235 69.0081H105.178V74.5039H116.235V69.0081Z" fill="#FFFF00"/>
<path d="M126.433 58.4383C124.102 59.2116 124.965 62.4557 125.131 63.0078L128.562 62.6066C128.608 62.038 128.827 57.6464 126.433 58.4383Z" fill="#FDA57D"/>
<g opacity="0.05">
<path opacity="0.05" d="M102.391 112.348C102.391 112.348 103.51 105.144 103.934 99.6485C102.435 95.9267 104.285 92.6639 104.285 92.6639V88.4666L109.046 86.0992L108.931 85.9296L103.83 88.4666V92.6639C103.83 92.6639 101.979 95.9205 103.479 99.6485C103.063 105.144 101.936 112.348 101.936 112.348L120.841 112.486L102.391 112.348Z" fill="black"/>
<path opacity="0.05" d="M111.09 88.4563L115.301 83.8517L114.887 83.8062L110.896 88.1689L111.09 88.4563Z" fill="black"/>
</g>
<path opacity="0.05" d="M107.402 86.9552L110.669 94.4359L116.659 84.2197L115.003 84.0088L110.898 88.0883L109.074 86.0496L107.402 86.9552Z" fill="black"/>
<path d="M107.402 86.7278L110.669 94.2106L116.659 83.9943L115.003 83.7814L110.898 87.8629L109.074 85.8221L107.402 86.7278Z" fill="white"/>
<path d="M144.729 118.398H81.5098V121.293H144.729V118.398Z" fill="#E0E0E0"/>
<path d="M134.643 124.187H91.5957V127.082H134.643V124.187Z" fill="#E0E0E0"/>
</g>
<defs>
<linearGradient id="paint0_linear" x1="179.626" y1="89.151" x2="179.626" y2="0.736542" gradientUnits="userSpaceOnUse">
<stop stop-color="#808080" stop-opacity="0.25"/>
<stop offset="0.54" stop-color="#808080" stop-opacity="0.12"/>
<stop offset="1" stop-color="#808080" stop-opacity="0.1"/>
</linearGradient>
<linearGradient id="paint1_linear" x1="24284.7" y1="15330.9" x2="28122" y2="15330.9" gradientUnits="userSpaceOnUse">
<stop stop-color="#808080" stop-opacity="0.25"/>
<stop offset="0.54" stop-color="#808080" stop-opacity="0.12"/>
<stop offset="1" stop-color="#808080" stop-opacity="0.1"/>
</linearGradient>
<linearGradient id="paint2_linear" x1="19800.4" y1="47956.6" x2="19800.4" y2="10149.6" gradientUnits="userSpaceOnUse">
<stop stop-color="#808080" stop-opacity="0.25"/>
<stop offset="0.54" stop-color="#808080" stop-opacity="0.12"/>
<stop offset="1" stop-color="#808080" stop-opacity="0.1"/>
</linearGradient>
<linearGradient id="paint3_linear" x1="6685.01" y1="21472.7" x2="11446.5" y2="21472.7" gradientUnits="userSpaceOnUse">
<stop stop-color="#808080" stop-opacity="0.25"/>
<stop offset="0.54" stop-color="#808080" stop-opacity="0.12"/>
<stop offset="1" stop-color="#808080" stop-opacity="0.1"/>
</linearGradient>
<linearGradient id="paint4_linear" x1="49356.8" y1="58631.9" x2="49356.8" y2="20825" gradientUnits="userSpaceOnUse">
<stop stop-color="#808080" stop-opacity="0.25"/>
<stop offset="0.54" stop-color="#808080" stop-opacity="0.12"/>
<stop offset="1" stop-color="#808080" stop-opacity="0.1"/>
</linearGradient>
<linearGradient id="paint5_linear" x1="19281.3" y1="29207.5" x2="25664.6" y2="29207.5" gradientUnits="userSpaceOnUse">
<stop stop-color="#808080" stop-opacity="0.25"/>
<stop offset="0.54" stop-color="#808080" stop-opacity="0.12"/>
<stop offset="1" stop-color="#808080" stop-opacity="0.1"/>
</linearGradient>
<clipPath id="clip0">
<rect width="225" height="137" fill="white" transform="translate(0 0.736542)"/>
</clipPath>
</defs>
</svg>
