<svg width="74" height="74" viewBox="0 0 74 74" fill="none" xmlns="http://www.w3.org/2000/svg">
<mask id="path-1-inside-1" fill="white">
<path d="M36.9992 12.8695C30.7897 12.8695 25.7383 17.9208 25.7383 24.1304C25.7383 30.3401 30.7895 35.3913 36.9992 35.3913C43.2088 35.3913 48.2601 30.3399 48.2601 24.1304C48.2601 17.9209 43.2088 12.8695 36.9992 12.8695ZM36.9992 32.1738C32.5657 32.1738 28.9558 28.5639 28.9558 24.1304C28.9558 19.6969 32.5657 16.087 36.9992 16.087C41.4327 16.087 45.0426 19.6969 45.0426 24.1304C45.0426 28.5639 41.4328 32.1738 36.9992 32.1738Z"/>
</mask>
<path d="M36.9992 -0.130493C23.6101 -0.130493 12.7383 10.741 12.7383 24.1304H38.7383C38.7383 25.1006 37.9693 25.8695 36.9992 25.8695V-0.130493ZM12.7383 24.1304C12.7383 37.5198 23.6098 48.3913 36.9992 48.3913V22.3913C37.9692 22.3913 38.7383 23.1604 38.7383 24.1304H12.7383ZM36.9992 48.3913C50.3887 48.3913 61.2601 37.5195 61.2601 24.1304H35.2601C35.2601 23.1604 36.029 22.3913 36.9992 22.3913V48.3913ZM61.2601 24.1304C61.2601 10.7413 50.3887 -0.130493 36.9992 -0.130493V25.8695C36.029 25.8695 35.2601 25.1005 35.2601 24.1304H61.2601ZM36.9992 19.1738C39.7454 19.1738 41.9558 21.3842 41.9558 24.1304H15.9558C15.9558 35.7436 25.386 45.1738 36.9992 45.1738V19.1738ZM41.9558 24.1304C41.9558 26.8766 39.7454 29.087 36.9992 29.087V3.087C25.386 3.087 15.9558 12.5172 15.9558 24.1304H41.9558ZM36.9992 29.087C34.253 29.087 32.0426 26.8766 32.0426 24.1304H58.0426C58.0426 12.5172 48.6124 3.087 36.9992 3.087V29.087ZM32.0426 24.1304C32.0426 21.3844 34.253 19.1738 36.9992 19.1738V45.1738C48.6127 45.1738 58.0426 35.7435 58.0426 24.1304H32.0426Z" fill="white" mask="url(#path-1-inside-1)"/>
<mask id="path-3-inside-2" fill="white">
<path d="M59.5219 25.7391C55.0884 25.7391 51.4785 29.3491 51.4785 33.7826C51.4785 38.2161 55.0884 41.826 59.5219 41.826C63.9554 41.826 67.5654 38.2161 67.5654 33.7826C67.5654 29.3491 63.9554 25.7391 59.5219 25.7391ZM59.5219 38.6087C56.8611 38.6087 54.6959 36.4434 54.6959 33.7826C54.6959 31.1217 56.8611 28.9565 59.5219 28.9565C62.1828 28.9565 64.348 31.1217 64.348 33.7826C64.348 36.4434 62.1826 38.6087 59.5219 38.6087Z"/>
</mask>
<path d="M59.5219 12.7391C47.9087 12.7391 38.4785 22.1694 38.4785 33.7826H64.4785C64.4785 36.5287 62.2682 38.7391 59.5219 38.7391V12.7391ZM38.4785 33.7826C38.4785 45.3958 47.9087 54.826 59.5219 54.826V28.826C62.2682 28.826 64.4785 31.0364 64.4785 33.7826H38.4785ZM59.5219 54.826C71.1352 54.826 80.5654 45.3958 80.5654 33.7826H54.5654C54.5654 31.0364 56.7757 28.826 59.5219 28.826V54.826ZM80.5654 33.7826C80.5654 22.1694 71.1352 12.7391 59.5219 12.7391V38.7391C56.7757 38.7391 54.5654 36.5287 54.5654 33.7826H80.5654ZM59.5219 25.6087C64.0408 25.6087 67.6959 29.2637 67.6959 33.7826H41.6959C41.6959 43.6231 49.6814 51.6087 59.5219 51.6087V25.6087ZM67.6959 33.7826C67.6959 38.3014 64.0408 41.9565 59.5219 41.9565V15.9565C49.6814 15.9565 41.6959 23.9421 41.6959 33.7826H67.6959ZM59.5219 41.9565C55.003 41.9565 51.348 38.3014 51.348 33.7826H77.348C77.348 23.9421 69.3625 15.9565 59.5219 15.9565V41.9565ZM51.348 33.7826C51.348 29.2635 55.0032 25.6087 59.5219 25.6087V51.6087C69.3621 51.6087 77.348 43.6234 77.348 33.7826H51.348Z" fill="white" mask="url(#path-3-inside-2)"/>
<mask id="path-5-inside-3" fill="white">
<path d="M14.7075 25.7391C10.2707 25.7391 6.66406 29.3491 6.66406 33.7826C6.66406 38.2161 10.274 41.826 14.7075 41.826C19.141 41.826 22.7509 38.2161 22.7509 33.7826C22.7509 29.3491 19.1442 25.7391 14.7075 25.7391ZM14.7075 38.6087C12.0467 38.6087 9.8814 36.4434 9.8814 33.7826C9.8814 31.1217 12.0467 28.9565 14.7075 28.9565C17.3683 28.9565 19.5336 31.1217 19.5336 33.7826C19.5336 36.4434 17.3682 38.6087 14.7075 38.6087Z"/>
</mask>
<path d="M14.7075 12.7391C3.08743 12.7391 -6.33594 22.1729 -6.33594 33.7826H19.6641C19.6641 36.5252 17.4539 38.7391 14.7075 38.7391V12.7391ZM-6.33594 33.7826C-6.33594 45.3958 3.09424 54.826 14.7075 54.826V28.826C17.4537 28.826 19.6641 31.0364 19.6641 33.7826H-6.33594ZM14.7075 54.826C26.3207 54.826 35.7509 45.3958 35.7509 33.7826H9.7509C9.7509 31.0364 11.9613 28.826 14.7075 28.826V54.826ZM35.7509 33.7826C35.7509 22.1727 26.3272 12.7391 14.7075 12.7391V38.7391C11.9611 38.7391 9.7509 36.5254 9.7509 33.7826H35.7509ZM14.7075 25.6087C19.2264 25.6087 22.8814 29.2637 22.8814 33.7826H-3.1186C-3.1186 43.6231 4.86692 51.6087 14.7075 51.6087V25.6087ZM22.8814 33.7826C22.8814 38.3014 19.2264 41.9565 14.7075 41.9565V15.9565C4.86692 15.9565 -3.1186 23.9421 -3.1186 33.7826H22.8814ZM14.7075 41.9565C10.1886 41.9565 6.53356 38.3014 6.53356 33.7826H32.5336C32.5336 23.9421 24.548 15.9565 14.7075 15.9565V41.9565ZM6.53356 33.7826C6.53356 29.2635 10.1887 25.6087 14.7075 25.6087V51.6087C24.5476 51.6087 32.5336 43.6233 32.5336 33.7826H6.53356Z" fill="white" mask="url(#path-5-inside-3)"/>
<mask id="path-7-inside-4" fill="white">
<path d="M36.999 38.6086C25.4678 38.6086 16.0859 47.9905 16.0859 59.5217C16.0859 60.4097 16.8067 61.1304 17.6947 61.1304C18.5827 61.1304 19.3034 60.4097 19.3034 59.5217C19.3034 49.7634 27.2407 41.8261 36.999 41.8261C46.7574 41.8261 54.6946 49.7634 54.6946 59.5217C54.6946 60.4097 55.4154 61.1304 56.3033 61.1304C57.1913 61.1304 57.9121 60.4097 57.9121 59.5217C57.9121 47.9905 48.5302 38.6086 36.999 38.6086Z"/>
</mask>
<path d="M57.9121 59.5217H44.9121H57.9121ZM36.999 25.6086C18.2882 25.6086 3.08594 40.8108 3.08594 59.5217H29.0859C29.0859 55.1703 32.6475 51.6086 36.999 51.6086V25.6086ZM3.08594 59.5217C3.08594 67.5894 9.62696 74.1304 17.6947 74.1304V48.1304C23.9864 48.1304 29.0859 53.23 29.0859 59.5217H3.08594ZM17.6947 74.1304C25.7624 74.1304 32.3034 67.5894 32.3034 59.5217H6.30343C6.30343 53.23 11.403 48.1304 17.6947 48.1304V74.1304ZM32.3034 59.5217C32.3034 56.9431 34.4204 54.8261 36.999 54.8261V28.8261C20.061 28.8261 6.30343 42.5837 6.30343 59.5217H32.3034ZM36.999 54.8261C39.5777 54.8261 41.6946 56.9431 41.6946 59.5217H67.6946C67.6946 42.5837 53.937 28.8261 36.999 28.8261V54.8261ZM41.6946 59.5217C41.6946 67.5894 48.2356 74.1304 56.3033 74.1304V48.1304C62.5951 48.1304 67.6946 53.23 67.6946 59.5217H41.6946ZM56.3033 74.1304C64.3711 74.1304 70.9121 67.5894 70.9121 59.5217H44.9121C44.9121 53.23 50.0116 48.1304 56.3033 48.1304V74.1304ZM70.9121 59.5217C70.9121 40.8108 55.7099 25.6086 36.999 25.6086V51.6086C41.3505 51.6086 44.9121 55.1703 44.9121 59.5217H70.9121Z" fill="white" mask="url(#path-7-inside-4)"/>
<mask id="path-9-inside-5" fill="white">
<path d="M59.5209 45.0435C56.873 45.0435 54.2797 45.7674 52.0211 47.1348C51.2651 47.5981 51.0205 48.5858 51.4806 49.3452C51.9471 50.1045 52.9316 50.3458 53.6909 49.8857C55.4443 48.8206 57.4585 48.2608 59.5209 48.2608C65.7304 48.2608 70.7818 53.312 70.7818 59.5217C70.7818 60.4097 71.5025 61.1305 72.3905 61.1305C73.2785 61.1305 73.9993 60.4097 73.9993 59.5217C73.9991 51.5394 67.5032 45.0435 59.5209 45.0435Z"/>
</mask>
<path d="M52.0211 47.1348L45.2883 36.0142L45.2584 36.0323L45.2286 36.0505L52.0211 47.1348ZM51.4806 49.3452L40.3625 56.0823L40.383 56.1161L40.4037 56.1497L51.4806 49.3452ZM53.6909 49.8857L60.428 61.0038L60.44 60.9965L53.6909 49.8857ZM73.9993 59.5217H86.9993V59.5215L73.9993 59.5217ZM59.5209 32.0435C54.5025 32.0435 49.5803 33.4156 45.2883 36.0142L58.7539 58.2555C58.9791 58.1191 59.2434 58.0435 59.5209 58.0435V32.0435ZM45.2286 36.0505C38.4274 40.2183 36.1614 49.1492 40.3625 56.0823L62.5987 42.6081C65.8795 48.0224 64.1027 54.9779 58.8136 58.2191L45.2286 36.0505ZM40.4037 56.1497C44.581 62.9498 53.5041 65.1994 60.428 61.0038L46.9539 38.7676C52.3591 35.4923 59.3131 37.2592 62.5575 42.5406L40.4037 56.1497ZM60.44 60.9965C60.1391 61.1793 59.8152 61.2608 59.5209 61.2608V35.2608C55.1017 35.2608 50.7495 36.462 46.9419 38.7749L60.44 60.9965ZM59.5209 61.2608C58.5508 61.2608 57.7818 60.4919 57.7818 59.5217H83.7818C83.7818 46.1322 72.9099 35.2608 59.5209 35.2608V61.2608ZM57.7818 59.5217C57.7818 67.5894 64.3228 74.1305 72.3905 74.1305V48.1305C78.6823 48.1305 83.7818 53.23 83.7818 59.5217H57.7818ZM72.3905 74.1305C80.4583 74.1305 86.9993 67.5894 86.9993 59.5217H60.9993C60.9993 53.23 66.0988 48.1305 72.3905 48.1305V74.1305ZM86.9993 59.5215C86.999 44.3596 74.6829 32.0435 59.5209 32.0435V58.0435C60.3235 58.0435 60.9993 58.7191 60.9993 59.522L86.9993 59.5215Z" fill="white" mask="url(#path-9-inside-5)"/>
<mask id="path-11-inside-6" fill="white">
<path d="M21.9748 47.1315C19.7194 45.7674 17.1263 45.0435 14.4783 45.0435C6.49591 45.0435 0 51.5394 0 59.5217C0 60.4097 0.720745 61.1305 1.60874 61.1305C2.49674 61.1305 3.21749 60.4097 3.21749 59.5217C3.21734 53.312 8.26874 48.2608 14.4783 48.2608C16.5406 48.2608 18.5546 48.8206 20.305 49.8824C21.061 50.3425 22.052 50.1012 22.5153 49.3418C22.9786 48.5825 22.734 47.5948 21.9748 47.1315Z"/>
</mask>
<path d="M21.9748 47.1315L28.7467 36.0346L28.7247 36.0211L28.7026 36.0078L21.9748 47.1315ZM3.21749 59.5217H16.2175V59.5214L3.21749 59.5217ZM20.305 49.8824L27.0637 38.7774L27.0554 38.7724L27.0472 38.7674L20.305 49.8824ZM28.7026 36.0078C24.415 33.4146 19.4948 32.0435 14.4783 32.0435V58.0435C14.7577 58.0435 15.0238 58.1202 15.247 58.2552L28.7026 36.0078ZM14.4783 32.0435C-0.683796 32.0435 -13 44.3597 -13 59.5217H13C13 58.7191 13.6756 58.0435 14.4783 58.0435V32.0435ZM-13 59.5217C-13 67.5894 -6.459 74.1305 1.60874 74.1305V48.1305C7.90049 48.1305 13 53.2301 13 59.5217H-13ZM1.60874 74.1305C9.67649 74.1305 16.2175 67.5894 16.2175 59.5217H-9.78251C-9.78251 53.2301 -4.683 48.1305 1.60874 48.1305V74.1305ZM16.2175 59.5214C16.2175 60.4919 15.4483 61.2608 14.4783 61.2608V35.2608C1.08921 35.2608 -9.78284 46.1322 -9.78251 59.522L16.2175 59.5214ZM14.4783 61.2608C14.1861 61.2608 13.8647 61.1805 13.5628 60.9974L27.0472 38.7674C23.2445 36.4608 18.8952 35.2608 14.4783 35.2608V61.2608ZM13.5463 60.9873C20.4603 65.1953 29.4311 62.9667 33.6129 56.1128L11.4178 42.5709C14.673 37.2357 21.6618 35.4897 27.0637 38.7774L13.5463 60.9873ZM33.6129 56.1128C37.8565 49.1574 35.5666 40.1964 28.7467 36.0346L15.2029 58.2284C9.90147 54.9932 8.10077 48.0076 11.4178 42.5709L33.6129 56.1128Z" fill="white" mask="url(#path-11-inside-6)"/>
</svg>
