<svg width="80" height="80" viewBox="0 0 80 80" fill="none" xmlns="http://www.w3.org/2000/svg">
<g clip-path="url(#clip0)">
<path d="M40.114 8.65525L40.1144 8.65539L77.7706 21.9415C77.7706 21.9415 77.7706 21.9415 77.7707 21.9415C77.9078 21.9899 77.9998 22.1196 78 22.2654C78 22.4112 77.9084 22.5408 77.7714 22.5895L77.7713 22.5896L40.1151 35.9766L40.1147 35.9767C40.0775 35.99 40.0388 35.9965 40 35.9965C39.9613 35.9965 39.9224 35.9899 39.8853 35.9767L39.8849 35.9766L2.22869 22.5896L2.22857 22.5895C2.09126 22.5407 1.99982 22.4108 2 22.2654C2.00018 22.1197 2.09218 21.9899 2.22947 21.9415L2.22951 21.9415L39.8858 8.65539L39.8861 8.65525C39.9598 8.62924 40.0403 8.62924 40.114 8.65525Z" stroke="white" stroke-width="4"/>
<path d="M72.3711 51.3401V52.4966L73.3735 53.0735C74.1917 53.5445 74.7344 54.421 74.7344 55.4217C74.7344 56.4221 74.1916 57.2988 73.3735 57.7696L72.3711 58.3465V59.5031V71.0211C72.3711 71.2109 72.2171 71.3648 72.0273 71.3648C71.8375 71.3648 71.6836 71.2109 71.6836 71.0211V59.5029V58.3465L70.6813 57.7696C69.863 57.2985 69.3203 56.4219 69.3203 55.4215C69.3203 54.421 69.8629 53.5445 70.6813 53.0735L71.6836 52.4966V51.3401V33.9744L72.3711 33.73V51.3401Z" stroke="white" stroke-width="4"/>
<path d="M36.9739 44.1617L36.974 44.1618C37.9471 44.5077 38.966 44.6835 39.999 44.6835C41.0319 44.6835 42.0508 44.5077 43.024 44.1618L43.0242 44.1617L61.5234 37.5851V45.0652C61.5234 45.5353 61.3066 46.1801 60.2988 46.997C59.2638 47.836 57.5703 48.6975 55.082 49.5051C50.7878 50.8989 45.4248 51.6851 39.999 51.6851C34.5731 51.6851 29.21 50.8989 24.916 49.5051L24.9159 49.5051C22.4277 48.6975 20.7341 47.836 19.6992 46.997C18.6913 46.1801 18.4746 45.5353 18.4746 45.0652V37.5851L36.9739 44.1617Z" stroke="white" stroke-width="4"/>
</g>
<defs>
<clipPath id="clip0">
<rect width="80" height="80" fill="white"/>
</clipPath>
</defs>
</svg>
