<svg width="56" height="68" viewBox="0 0 56 68" fill="none" xmlns="http://www.w3.org/2000/svg">
<path d="M16.5108 66.1454C13.1611 65.3259 10.0722 63.6443 7.55813 61.2544C5.06799 58.8873 3.24323 55.9218 2.24868 52.655H3.57214C4.54062 55.6127 6.23914 58.286 8.51841 60.4233C10.7782 62.5423 13.527 64.0579 16.5108 64.8405V66.1454ZM10.5529 47.5236H9.9214V46.2607H32.4989V47.5236H31.8675C29.2952 47.5236 26.8214 48.5122 24.9576 50.285C23.0939 52.0578 21.9828 54.4791 21.8542 57.0481L21.8532 57.0669L21.8528 57.0856L21.8421 57.5119L21.8416 57.5307V57.5494V58.1809H20.5787V57.5494C20.5787 54.9772 19.5901 52.5034 17.8173 50.6396C16.0445 48.7758 13.6232 47.6647 11.0542 47.5361L11.0354 47.5352L11.0166 47.5347L10.5904 47.5241L10.5716 47.5236H10.5529ZM38.8475 52.6556L40.1717 52.6562C39.1669 55.9552 37.3156 58.9463 34.7882 61.3239C32.2322 63.7283 29.0921 65.4043 25.6942 66.1951V64.8962C28.7213 64.1407 31.5164 62.6328 33.8156 60.5039C36.1375 58.3538 37.8668 55.6508 38.8475 52.6556Z" stroke="white" stroke-width="3"/>
<path d="M38.3314 29.8405C45.6165 29.8405 51.9884 32.9737 55.4539 37.6487L51.7894 39.3814C48.9685 36.0393 43.9951 33.8192 38.3314 33.8192C32.6677 33.8192 27.6943 36.0393 24.8734 39.3814L21.2109 37.6467C24.6764 32.9717 31.0464 29.8405 38.3314 29.8405ZM38.3314 0C40.9695 0 43.4995 1.04797 45.3649 2.91336C47.2303 4.77875 48.2782 7.30876 48.2782 9.94682V15.9149C48.2781 18.4781 47.2884 20.9423 45.5157 22.7937C43.7429 24.645 41.3239 25.7405 38.7631 25.8518L38.3314 25.8617C35.6933 25.8617 33.1633 24.8138 31.2979 22.9484C29.4325 21.083 28.3846 18.553 28.3846 15.9149V9.94682C28.3847 7.38359 29.3744 4.91937 31.1471 3.06804C32.9199 1.21671 35.3389 0.121191 37.8997 0.00994704L38.3314 0ZM38.3314 3.97873C36.8091 3.97864 35.3443 4.56027 34.2368 5.6046C33.1292 6.64893 32.4626 8.07703 32.3733 9.59669L32.3633 9.94682V15.9149C32.3618 17.4684 32.9661 18.9613 34.0478 20.0763C35.1296 21.1913 36.6034 21.8406 38.1563 21.8862C39.7091 21.9318 41.2185 21.3701 42.3638 20.3204C43.5091 19.2708 44.1999 17.816 44.2895 16.265L44.2995 15.9149V9.94682C44.2995 8.36398 43.6707 6.84597 42.5515 5.72674C41.4322 4.60751 39.9142 3.97873 38.3314 3.97873Z" fill="white"/>
</svg>
