<svg width="161" height="137" viewBox="0 0 161 137" fill="none" xmlns="http://www.w3.org/2000/svg">
<g clip-path="url(#clip0)">
<path d="M23.875 131.012L26.9984 131.886L31.8534 120.249L27.2435 118.96L23.875 131.012Z" fill="#FFB8B8"/>
<path d="M32.2109 136.472L22.394 133.726L23.4545 129.932L29.8581 131.723C30.7633 131.976 31.531 132.579 31.9921 133.398C32.4533 134.218 32.5702 135.187 32.3171 136.092L32.2109 136.472Z" fill="#2F2E41"/>
<path d="M61.1338 133.459L64.3773 133.459L65.9196 120.944L61.1328 120.944L61.1338 133.459Z" fill="#FFB8B8"/>
<path d="M70.6328 136.471L60.4395 136.472L60.4391 132.532L67.0883 132.532C67.5537 132.531 68.0146 132.623 68.4446 132.801C68.8746 132.979 69.2654 133.241 69.5945 133.57C69.9236 133.899 70.1847 134.29 70.3629 134.72C70.541 135.15 70.6327 135.611 70.6328 136.077L70.6328 136.471Z" fill="#2F2E41"/>
<path d="M37.0316 81.5032L29.5664 99.7977L60.0494 106.648L60.4382 96.4129L46.5965 81.6643L37.0316 81.5032Z" fill="#B3B3B3"/>
<path d="M53.5702 53.004C56.9469 51.1575 58.1879 46.9222 56.342 43.5442C54.4961 40.1663 50.2623 38.9248 46.8856 40.7714C43.5089 42.6179 42.2679 46.8532 44.1138 50.2312C45.9597 53.6091 50.1934 54.8506 53.5702 53.004Z" fill="#FFB8B8"/>
<path d="M55.2074 80.4909L41.4095 74.8407L40.181 66.7375C39.8193 64.369 40.3842 61.9521 41.7583 59.9896C43.1325 58.0271 45.21 56.6701 47.5588 56.2008L49.3838 55.8342C50.8831 55.5339 52.433 55.6043 53.8989 56.0392C55.3648 56.4741 56.7024 57.2605 57.7955 58.3299C58.8663 59.3534 59.667 60.6262 60.1262 62.0347C60.5853 63.4432 60.6887 64.9435 60.4269 66.4017C60.2208 67.6511 59.7143 68.8318 58.9509 69.842C54.6163 75.5122 55.1728 80.2259 55.1789 80.2729L55.2074 80.4909Z" fill="#6C63FF"/>
<path d="M60.8256 101.623L53.9107 90.6218L56.0887 70.6102L53.0801 55.6435L53.24 55.6475C54.9899 55.6907 56.6562 56.4056 57.8937 57.644C59.1312 58.8825 59.8451 60.5496 59.8875 62.3002L62.8143 76.9662L60.8256 101.623Z" fill="#2F2E41"/>
<path d="M60.9844 131.093C60.6929 131.093 60.4106 130.992 60.1851 130.807C59.9597 130.622 59.8052 130.365 59.7477 130.079L56.7182 115.009C56.1649 112.248 55.1229 109.609 53.6414 107.214L45.0932 93.3815C45.0507 93.3127 44.99 93.2569 44.9178 93.2204C44.8457 93.1838 44.7648 93.1679 44.6842 93.1743C44.6036 93.1808 44.5263 93.2093 44.4608 93.2569C44.3954 93.3044 44.3443 93.3691 44.3132 93.4438L30.2593 127.217C30.1463 127.487 29.9433 127.71 29.6848 127.847C29.4263 127.984 29.1283 128.027 28.8416 127.969L25.0872 127.203C24.7656 127.139 24.4818 126.952 24.2963 126.681C24.1109 126.41 24.0386 126.078 24.0947 125.755L27.1574 107.699C27.7822 104.018 28.8467 100.426 30.3282 97.0002L40.7005 73.0199L56.0075 78.0488L57.0176 88.7711L64.0901 105.903C64.579 107.086 64.8711 108.341 64.9551 109.619L66.2617 129.418C66.282 129.749 66.1724 130.074 65.9563 130.325C65.7402 130.576 65.4346 130.732 65.1049 130.76L61.0884 131.089C61.0535 131.092 61.0188 131.093 60.9844 131.093Z" fill="#2F2E41"/>
<path d="M33.0598 106.529L28.207 101.921L37.3781 66.5441C37.9599 64.3198 39.0509 62.2614 40.5647 60.5313C42.0785 58.8013 43.9737 57.4471 46.1006 56.5757L46.2807 56.5024L45.7906 78.0337L33.0598 106.529Z" fill="#2F2E41"/>
<path d="M48.6054 53.8333C46.8839 52.3427 46.3603 49.5621 47.4152 47.5121C48.47 45.4621 50.9921 44.3586 53.1488 45.0034C55.18 45.6107 57.4891 43.5849 57.2416 41.4128C56.9941 39.2406 54.2931 37.8257 52.454 38.9048C51.0612 38.3456 49.5366 38.2008 48.0636 38.4878C46.5905 38.7749 45.2316 39.4814 44.1504 40.5226C41.9897 42.6401 41.17 46.1016 42.14 49.0124C43.11 51.9232 45.8176 54.1269 48.6054 53.8333Z" fill="#2F2E41"/>
<path d="M42.51 110.485C42.425 110.518 42.3365 110.541 42.2462 110.553L31.1671 112.1C30.8991 112.139 30.626 112.085 30.3928 111.947C30.1595 111.809 29.98 111.597 29.8838 111.343L20.3473 86.5199C20.2856 86.3592 20.2592 86.1871 20.2699 86.0153C20.2807 85.8434 20.3284 85.6759 20.4097 85.5242C20.491 85.3724 20.6041 85.24 20.7412 85.1359C20.8783 85.0319 21.0362 84.9586 21.2042 84.9211L21.2042 84.921L31.623 82.5952C31.7034 82.5771 31.7811 82.5487 31.8542 82.5106L41.9879 77.2105C42.0662 77.1694 42.1488 77.1373 42.2342 77.1146L53.3864 74.1405C53.672 74.0637 53.9759 74.0957 54.2394 74.2301C54.5028 74.3645 54.707 74.5918 54.8127 74.8681L63.1279 96.5127C63.2009 96.7013 63.2248 96.9053 63.1973 97.1057C63.1698 97.306 63.0917 97.4961 62.9706 97.6579L60.0948 101.521C59.9596 101.703 59.7754 101.843 59.5639 101.924L53.2792 104.34C53.2342 104.357 53.1905 104.378 53.1487 104.402L42.6762 110.406C42.6229 110.437 42.5674 110.463 42.51 110.485Z" fill="white"/>
<path d="M47.6634 77.4496L46.2472 77.8274L42.4943 78.8287L42.4876 78.8302L37.3496 81.5177L35.4429 82.5153L35.442 82.5156L32.5782 84.0133L32.4997 84.031L29.5247 84.6946L28.0869 85.0163L22.2227 86.3253L31.4288 110.289L37.4719 109.445L38.9536 109.238L42.1118 108.797L42.1484 108.792L52.2967 102.974L58.4713 100.6L61.2904 96.8128L53.2766 75.9528L47.6634 77.4496Z" fill="#E6E6E6"/>
<path d="M54.5981 79.3896L24.0684 91.1266L24.5912 92.4875L55.1209 80.7505L54.5981 79.3896Z" fill="white"/>
<path d="M56.3402 83.926L25.8105 95.663L26.3334 97.0239L56.8631 85.2869L56.3402 83.926Z" fill="white"/>
<path d="M59.8598 93.0894L29.3301 104.826L29.8529 106.187L60.3826 94.4503L59.8598 93.0894Z" fill="white"/>
<path d="M47.6642 77.4495L56.8043 101.241L55.444 101.764L46.248 77.8275L47.6642 77.4495Z" fill="white"/>
<path d="M37.3493 81.5178L35.4725 86.7417L34.8217 88.5537L33.3037 92.7819L32.9784 93.6857L32.6529 94.5939L32.2242 95.7864L29.1475 104.352L28.3477 102.27L30.8563 95.2848L31.4239 93.7034L31.5071 93.4725L32.1783 91.6027L33.0251 89.2446L33.6759 87.4323L35.4416 82.5156L35.4424 82.5154L37.3493 81.5178Z" fill="white"/>
<path opacity="0.1" d="M52.5184 102.889L52.2971 102.974L42.1488 108.792L42.1121 108.797L32.5 84.0309L32.5786 84.0133L35.4424 82.5156L35.4432 82.5154L37.3501 81.5178L42.4881 78.8302L42.4948 78.8287L52.5184 102.889Z" fill="black"/>
<path d="M42.5545 110.604C42.4604 110.64 42.3625 110.666 42.2626 110.68L31.1835 112.227C30.8869 112.269 30.5847 112.209 30.3266 112.057C30.0685 111.905 29.8698 111.669 29.7633 111.389L20.2269 86.5658C20.1585 86.3879 20.1294 86.1974 20.1413 86.0073C20.1532 85.8171 20.2059 85.6318 20.2959 85.4638C20.3859 85.2959 20.511 85.1494 20.6628 85.0342C20.8145 84.919 20.9892 84.8379 21.1751 84.7964L31.5938 82.4706C31.6634 82.4549 31.7306 82.4303 31.7938 82.3973L41.9275 77.0972C42.0141 77.0519 42.1055 77.0163 42.2 76.9911L53.3523 74.0171C53.6684 73.9322 54.0046 73.9675 54.2962 74.1162C54.5877 74.265 54.8137 74.5166 54.9305 74.8223L63.2457 96.4669C63.3266 96.6756 63.353 96.9014 63.3225 97.1231C63.2921 97.3448 63.2057 97.5551 63.0717 97.7343L60.196 101.597C60.0463 101.799 59.8425 101.953 59.6085 102.043L53.3238 104.459C53.2848 104.474 53.247 104.492 53.2108 104.513L42.7384 110.517C42.6794 110.551 42.6179 110.58 42.5545 110.604ZM21.1714 85.3297C20.9698 85.4073 20.8073 85.5618 20.7196 85.7592C20.6318 85.9566 20.626 86.1808 20.7035 86.3825L30.24 111.206C30.3054 111.378 30.4275 111.523 30.5862 111.617C30.7449 111.71 30.9306 111.747 31.1129 111.721L42.1921 110.174C42.295 110.159 42.3943 110.125 42.4846 110.074L52.957 104.069C53.0159 104.036 53.0773 104.007 53.1406 103.982L59.4253 101.566C59.5691 101.511 59.6944 101.416 59.7864 101.292L62.6621 97.4292C62.7445 97.3191 62.7976 97.1898 62.8163 97.0535C62.8351 96.9172 62.8188 96.7784 62.7691 96.6502L54.4539 75.0056C54.3821 74.8176 54.2432 74.663 54.064 74.5715C53.8848 74.4801 53.6781 74.4584 53.4838 74.5105L42.3316 77.4847C42.2736 77.5003 42.2175 77.5222 42.1642 77.5498L32.0304 82.8501C31.9276 82.9036 31.8182 82.9436 31.7052 82.9691L21.2864 85.295C21.2473 85.3037 21.2088 85.3153 21.1714 85.3297Z" fill="#E6E6E6"/>
<path d="M29.5258 84.6946L38.9546 109.238L37.473 109.445L28.0879 85.0162L29.5258 84.6946Z" fill="white"/>
<path d="M32.2368 94.6015C32.6124 94.6015 32.9169 94.2969 32.9169 93.9211C32.9169 93.5453 32.6124 93.2407 32.2368 93.2407C31.8611 93.2407 31.5566 93.5453 31.5566 93.9211C31.5566 94.2969 31.8611 94.6015 32.2368 94.6015Z" fill="#3F3D56"/>
<path d="M56.352 95.3267C56.7276 95.3267 57.0321 95.0221 57.0321 94.6464C57.0321 94.2706 56.7276 93.966 56.352 93.966C55.9764 93.966 55.6719 94.2706 55.6719 94.6464C55.6719 95.0221 55.9764 95.3267 56.352 95.3267Z" fill="#0099FF"/>
<path d="M56.6285 82.3577C57.4004 84.367 56.4714 91.0257 56.1448 93.1631C56.1344 93.2309 56.1064 93.2948 56.0634 93.3482C56.0205 93.4016 55.9641 93.4427 55.9001 93.4673C55.8362 93.4919 55.7668 93.4991 55.6991 93.4882C55.6315 93.4773 55.5679 93.4487 55.5148 93.4053C53.8413 92.0368 48.6937 87.7142 47.9217 85.7049C47.702 85.133 47.5971 84.5234 47.6129 83.911C47.6287 83.2985 47.7649 82.6951 48.0138 82.1353C48.2627 81.5755 48.6194 81.0702 49.0635 80.6483C49.5076 80.2264 50.0304 79.8962 50.6021 79.6764C51.1738 79.4566 51.7831 79.3516 52.3954 79.3674C53.0076 79.3832 53.6108 79.5195 54.1704 79.7685C54.73 80.0174 55.2351 80.3742 55.6568 80.8185C56.0786 81.2627 56.4087 81.7858 56.6285 82.3576V82.3577Z" fill="#0099FF"/>
<path d="M52.2743 86.5584C53.6694 86.5584 54.8005 85.4269 54.8005 84.0313C54.8005 82.6356 53.6694 81.5042 52.2743 81.5042C50.8791 81.5042 49.748 82.6356 49.748 84.0313C49.748 85.4269 50.8791 86.5584 52.2743 86.5584Z" fill="white"/>
<path d="M49.0284 78.5785C49.1306 78.2031 49.3139 77.8547 49.5653 77.5579C49.8167 77.261 50.1301 77.0229 50.4834 76.8603C50.8367 76.6978 51.2214 76.6147 51.6103 76.6169C51.9992 76.6191 52.3829 76.7066 52.7343 76.8732L57.2441 72.7952L60.3898 74.9323L53.9403 80.6018C53.6214 81.1739 53.1038 81.609 52.4856 81.8248C51.8673 82.0406 51.1914 82.022 50.586 81.7726C49.9805 81.5232 49.4875 81.0603 49.2005 80.4716C48.9134 79.8829 48.8522 79.2093 49.0284 78.5785Z" fill="#FFB8B8"/>
<path d="M56.2948 79.9095L52.7598 75.1103L60.8189 69.9505L55.0426 61.7052C54.5707 61.0315 54.3637 60.2073 54.4615 59.3905C54.5592 58.5737 54.9548 57.8217 55.5724 57.2785C56.19 56.7353 56.9862 56.4391 57.8085 56.4467C58.6308 56.4542 59.4214 56.765 60.0289 57.3195L67.2614 63.9206C67.9504 64.5494 68.4849 65.3288 68.8234 66.1981C69.1619 67.0673 69.2952 68.0031 69.2129 68.9323C69.1306 69.8616 68.835 70.7593 68.3491 71.5556C67.8632 72.3519 67.2 73.0251 66.4114 73.523L56.2948 79.9095Z" fill="#2F2E41"/>
<path d="M28.6001 92.5016C28.9196 92.2799 29.1867 91.9908 29.3825 91.6546C29.5782 91.3184 29.698 90.9434 29.7332 90.556C29.7684 90.1685 29.7183 89.778 29.5863 89.4121C29.4544 89.0461 29.2438 88.7135 28.9694 88.4377L31.3063 82.8236L28.2422 80.571L25.0534 88.5455C24.6209 89.0373 24.3837 89.6707 24.3867 90.3257C24.3898 90.9807 24.633 91.6118 25.0702 92.0995C25.5073 92.5871 26.1081 92.8974 26.7587 92.9715C27.4093 93.0457 28.0645 92.8785 28.6001 92.5017V92.5016Z" fill="#FFB8B8"/>
<path d="M30.1788 86.8014L24.6523 85.5139L28.7707 73.634C29.4804 71.5842 30.5274 69.6674 31.8685 67.9627L38.5872 59.4159C39.2016 58.6342 40.1008 58.1279 41.0877 58.008C42.0746 57.8881 43.0687 58.1643 43.8524 58.7763C44.636 59.3882 45.1453 60.2859 45.2686 61.2727C45.392 62.2595 45.1193 63.255 44.5104 64.0411L37.055 73.6667L30.1788 86.8014Z" fill="#2F2E41"/>
<path d="M97.5275 136.737H0.255308C0.187596 136.737 0.122653 136.71 0.0747738 136.662C0.0268943 136.614 0 136.549 0 136.481C0 136.413 0.0268943 136.348 0.0747738 136.301C0.122653 136.253 0.187596 136.226 0.255308 136.226H97.5275C97.5952 136.226 97.6602 136.253 97.7081 136.301C97.7559 136.348 97.7828 136.413 97.7828 136.481C97.7828 136.549 97.7559 136.614 97.7081 136.662C97.6602 136.71 97.5952 136.737 97.5275 136.737Z" fill="#CCCCCC"/>
<path d="M135.259 136.609H132.961V1.88587C132.961 1.58106 133.082 1.28873 133.297 1.07319C133.513 0.85766 133.805 0.736572 134.11 0.736572C134.415 0.736572 134.707 0.85766 134.922 1.07319C135.138 1.28873 135.259 1.58106 135.259 1.88587V136.609Z" fill="#E6E6E6"/>
<path d="M151.909 136.737H116.165C116.098 136.737 116.033 136.71 115.985 136.662C115.937 136.614 115.91 136.549 115.91 136.481C115.91 136.413 115.937 136.348 115.985 136.301C116.033 136.253 116.098 136.226 116.165 136.226H151.909C151.976 136.226 152.041 136.253 152.089 136.301C152.137 136.348 152.164 136.413 152.164 136.481C152.164 136.549 152.137 136.614 152.089 136.662C152.041 136.71 151.976 136.737 151.909 136.737Z" fill="#CCCCCC"/>
<path d="M151.202 18.3591H117.77C117.465 18.3588 117.173 18.2376 116.958 18.0221C116.743 17.8066 116.621 17.5145 116.621 17.2098V7.50464C116.621 7.19994 116.743 6.90781 116.958 6.69235C117.173 6.47689 117.465 6.35569 117.77 6.35535H151.205C151.401 6.35548 151.594 6.40566 151.765 6.50113L160.411 11.3279C160.589 11.4274 160.737 11.5726 160.841 11.7485C160.944 11.9244 160.999 12.1248 161 12.3289C161 12.5331 160.946 12.7337 160.843 12.9101C160.741 13.0865 160.593 13.2323 160.415 13.3326L151.767 18.211C151.594 18.3079 151.4 18.359 151.202 18.3591Z" fill="#0099FF"/>
<path d="M148.152 39.3019H114.719C114.521 39.3017 114.327 39.2507 114.155 39.1537L105.506 34.2753C105.329 34.175 105.181 34.0292 105.078 33.8528C104.975 33.6764 104.921 33.4758 104.922 33.2717C104.922 33.0675 104.977 32.8672 105.081 32.6912C105.184 32.5153 105.333 32.3701 105.511 32.2706L114.157 27.4439C114.328 27.3484 114.521 27.2982 114.717 27.2981H148.152C148.456 27.2984 148.748 27.4196 148.964 27.6351C149.179 27.8506 149.3 28.1427 149.301 28.4474V38.1526C149.3 38.4573 149.179 38.7494 148.964 38.9648C148.748 39.1803 148.456 39.3015 148.152 39.3019Z" fill="#E6E6E6"/>
<path d="M148.281 59.8615H114.848C114.65 59.8614 114.456 59.8103 114.284 59.7133L105.635 54.8349C105.458 54.7347 105.31 54.5888 105.207 54.4124C105.104 54.2361 105.05 54.0355 105.051 53.8313C105.051 53.6272 105.106 53.4268 105.21 53.2509C105.313 53.0749 105.462 52.9298 105.64 52.8303L114.286 48.0035C114.457 47.908 114.65 47.8579 114.846 47.8577H148.281C148.585 47.8581 148.877 47.9793 149.093 48.1947C149.308 48.4102 149.429 48.7023 149.429 49.007V58.7122C149.429 59.0169 149.308 59.309 149.093 59.5245C148.877 59.7399 148.585 59.8611 148.281 59.8615Z" fill="#E6E6E6"/>
</g>
<defs>
<clipPath id="clip0">
<rect width="161" height="136" fill="white" transform="translate(0 0.736572)"/>
</clipPath>
</defs>
</svg>
