<svg width="225" height="126" viewBox="0 0 225 126" fill="none" xmlns="http://www.w3.org/2000/svg">
<g clip-path="url(#clip0)">
<path opacity="0.1" d="M112.5 125.737C174.632 125.737 225 109.351 225 89.1394C225 68.9273 174.632 52.5422 112.5 52.5422C50.368 52.5422 0 68.9273 0 89.1394C0 109.351 50.368 125.737 112.5 125.737Z" fill="#0099FF"/>
<path opacity="0.1" d="M134.092 96.5154C136.176 96.5154 137.865 96.2177 137.865 95.8505C137.865 95.4832 136.176 95.1855 134.092 95.1855C132.009 95.1855 130.32 95.4832 130.32 95.8505C130.32 96.2177 132.009 96.5154 134.092 96.5154Z" fill="#6C63FF"/>
<path d="M131.559 92.7608C131.559 92.7608 133.71 92.6917 134.359 92.2102C135.007 91.7287 137.669 91.1538 137.83 91.926C137.99 92.6982 141.063 95.7666 138.634 95.787C136.205 95.8075 132.989 95.3925 132.342 94.9814C131.695 94.5703 131.559 92.7608 131.559 92.7608Z" fill="#0099FF"/>
<path opacity="0.2" d="M138.677 95.5182C136.248 95.5386 133.033 95.1236 132.385 94.7126C131.893 94.3995 131.696 93.2761 131.63 92.7578C131.585 92.7599 131.559 92.7608 131.559 92.7608C131.559 92.7608 131.695 94.5703 132.342 94.9814C132.989 95.3924 136.205 95.8074 138.634 95.787C139.335 95.7811 139.577 95.521 139.564 95.1357C139.467 95.3685 139.199 95.5138 138.677 95.5182Z" fill="black"/>
<path opacity="0.1" d="M155.971 88.6144C157.574 88.6144 158.874 88.3853 158.874 88.1027C158.874 87.8202 157.574 87.5911 155.971 87.5911C154.368 87.5911 153.068 87.8202 153.068 88.1027C153.068 88.3853 154.368 88.6144 155.971 88.6144Z" fill="#6C63FF"/>
<path d="M154.023 85.7252C154.023 85.7252 155.679 85.672 156.178 85.3015C156.677 84.931 158.725 84.4886 158.849 85.0828C158.973 85.677 161.337 88.0382 159.468 88.0539C157.599 88.0696 155.124 87.7503 154.626 87.434C154.128 87.1176 154.023 85.7252 154.023 85.7252Z" fill="#0099FF"/>
<path opacity="0.2" d="M159.501 87.8471C157.632 87.8628 155.158 87.5435 154.66 87.2271C154.28 86.9862 154.129 86.1218 154.079 85.723C154.044 85.7245 154.023 85.7252 154.023 85.7252C154.023 85.7252 154.128 87.1176 154.626 87.434C155.124 87.7503 157.599 88.0696 159.468 88.0539C160.008 88.0494 160.194 87.8492 160.184 87.5527C160.109 87.7318 159.903 87.8437 159.501 87.8471Z" fill="black"/>
<path opacity="0.1" d="M142.803 121.671C146.63 121.671 149.732 121.124 149.732 120.45C149.732 119.775 146.63 119.228 142.803 119.228C138.976 119.228 135.873 119.775 135.873 120.45C135.873 121.124 138.976 121.671 142.803 121.671Z" fill="#6C63FF"/>
<path opacity="0.2" d="M151.226 119.839C146.763 119.877 140.856 119.115 139.667 118.359C138.762 117.784 138.401 115.721 138.28 114.769C138.197 114.772 138.148 114.774 138.148 114.774C138.148 114.774 138.399 118.098 139.588 118.853C140.777 119.608 146.683 120.371 151.146 120.333C152.434 120.322 152.879 119.845 152.855 119.137C152.676 119.564 152.184 119.831 151.226 119.839Z" fill="#0099FF"/>
<path d="M215.969 77.4527C215.969 82.3025 214.173 86.9649 210.956 90.4671C207.738 93.9693 203.348 96.0407 198.702 96.249C194.055 96.4573 189.51 94.7864 186.016 91.5851C182.523 88.3837 180.35 83.8991 179.951 79.0673C179.924 78.7617 179.905 78.4561 179.896 78.146V78.13C179.887 77.9043 179.883 77.6785 179.883 77.4527C179.884 72.4641 181.786 67.6804 185.17 64.1535C188.553 60.6266 193.142 58.6453 197.926 58.6453C202.71 58.6453 207.299 60.6266 210.682 64.1535C214.066 67.6804 215.967 72.4641 215.969 77.4527Z" fill="#65617D"/>
<path opacity="0.2" d="M215.969 77.4527C215.969 82.3025 214.173 86.9649 210.956 90.4671C207.738 93.9693 203.348 96.0407 198.702 96.249C194.055 96.4573 189.51 94.7864 186.016 91.5851C182.523 88.3837 180.35 83.8991 179.951 79.0673C179.924 78.7617 179.905 78.4561 179.896 78.146V78.13C179.887 77.9043 179.883 77.6785 179.883 77.4527C179.884 72.4641 181.786 67.6804 185.17 64.1535C188.553 60.6266 193.142 58.6453 197.926 58.6453C202.71 58.6453 207.299 60.6266 210.682 64.1535C214.066 67.6804 215.967 72.4641 215.969 77.4527Z" fill="black"/>
<path d="M197.926 87.7147C203.361 87.7147 207.767 83.1203 207.767 77.4527C207.767 71.7852 203.361 67.1907 197.926 67.1907C192.49 67.1907 188.084 71.7852 188.084 77.4527C188.084 83.1203 192.49 87.7147 197.926 87.7147Z" fill="#DCE0ED"/>
<path d="M197.927 83.6099C201.188 83.6099 203.832 80.8532 203.832 77.4527C203.832 74.0522 201.188 71.2955 197.927 71.2955C194.665 71.2955 192.021 74.0522 192.021 77.4527C192.021 80.8532 194.665 83.6099 197.927 83.6099Z" fill="#65617D"/>
<path d="M119.645 77.4527C119.645 82.3025 117.849 86.9649 114.632 90.4671C111.414 93.9693 107.024 96.0407 102.377 96.249C97.7305 96.4573 93.186 94.7864 89.6923 91.5851C86.1985 88.3837 84.0254 83.8991 83.6264 79.0673C83.6002 78.7617 83.5805 78.4561 83.5717 78.146V78.13C83.563 77.9042 83.5586 77.6785 83.5586 77.4527C83.5602 72.4641 85.4619 67.6804 88.8454 64.1535C92.229 60.6266 96.8174 58.6453 101.602 58.6453C106.386 58.6453 110.974 60.6266 114.358 64.1535C117.742 67.6804 119.643 72.4641 119.645 77.4527Z" fill="#65617D"/>
<path opacity="0.2" d="M119.645 77.4527C119.645 82.3025 117.849 86.9649 114.632 90.4671C111.414 93.9693 107.024 96.0407 102.377 96.249C97.7305 96.4573 93.186 94.7864 89.6923 91.5851C86.1985 88.3837 84.0254 83.8991 83.6264 79.0673C83.6002 78.7617 83.5805 78.4561 83.5717 78.146V78.13C83.563 77.9042 83.5586 77.6785 83.5586 77.4527C83.5602 72.4641 85.4619 67.6804 88.8454 64.1535C92.229 60.6266 96.8174 58.6453 101.602 58.6453C106.386 58.6453 110.974 60.6266 114.358 64.1535C117.742 67.6804 119.643 72.4641 119.645 77.4527Z" fill="black"/>
<path d="M101.601 87.7147C107.037 87.7147 111.443 83.1203 111.443 77.4527C111.443 71.7852 107.037 67.1907 101.601 67.1907C96.1661 67.1907 91.7598 71.7852 91.7598 77.4527C91.7598 83.1203 96.1661 87.7147 101.601 87.7147Z" fill="#DCE0ED"/>
<path d="M101.602 83.6099C104.864 83.6099 107.507 80.8532 107.507 77.4527C107.507 74.0522 104.864 71.2955 101.602 71.2955C98.341 71.2955 95.6973 74.0522 95.6973 77.4527C95.6973 80.8532 98.341 83.6099 101.602 83.6099Z" fill="#65617D"/>
<path d="M221.597 73.9274L215.577 73.6544L210.08 63.0102L190.71 61.3726L181.287 74.2003L181.811 77.7483L180.502 81.0235L118.991 81.5694V79.9318H118.467L117.944 77.4754H122.655L119.253 73.6544L107.212 63.0102C107.212 63.0102 86.5338 63.5561 86.272 63.0102C86.0103 62.4643 87.4499 56.8693 87.4499 56.8693L96.3494 54.14L126.713 51.6837C133.387 40.6301 139.407 35.4444 139.407 35.4444H217.409L221.074 55.0953V55.1416L221.597 73.9274Z" fill="#0099FF"/>
<path d="M178.147 75.292C178.147 75.292 185.999 60.008 192.02 60.008H206.678C206.678 60.008 210.342 60.008 211.913 63.0102L217.933 75.292H213.221C213.221 75.292 209.295 63.829 204.845 63.5561C200.396 63.2832 192.805 63.5561 192.805 63.5561C192.805 63.5561 190.187 63.5561 188.617 66.8312C187.046 70.1064 181.736 77.2406 181.736 77.2406C181.736 77.2406 176.053 79.113 178.147 75.292Z" fill="#33323D"/>
<path d="M224.999 72.8358H215.153L215.053 81.0235L224.999 78.5672V72.8358Z" fill="#33323D"/>
<path d="M82.6074 67.9229C82.6074 67.9229 83.1309 63.829 86.7954 62.1914L110.877 60.8268C110.877 60.8268 114.803 61.0997 116.897 66.2854L123.702 76.9296V78.5671H116.111C116.111 78.5671 112.447 64.1019 101.977 64.6478H89.4129C89.4129 64.6478 86.5337 64.6478 85.4867 69.5605L82.6074 67.9229Z" fill="#33323D"/>
<path d="M139.146 37.082H219.504C219.504 36.2858 219.201 35.5221 218.661 34.9591C218.121 34.3961 217.388 34.0798 216.625 34.0798H142.026C141.648 34.0798 141.273 34.1574 140.924 34.3083C140.575 34.4592 140.257 34.6803 139.99 34.9591C139.722 35.2379 139.51 35.5689 139.366 35.9331C139.221 36.2974 139.146 36.6878 139.146 37.082Z" fill="#33323D"/>
<path opacity="0.3" d="M156.367 53.0687H134.13C133.88 53.0687 133.633 53.0034 133.413 52.8788C133.193 52.7543 133.006 52.5743 132.87 52.3553C132.733 52.1363 132.651 51.8852 132.632 51.6248C132.612 51.3645 132.655 51.1031 132.757 50.8644L136.275 42.6094C136.818 41.3358 137.704 40.2537 138.824 39.4942C139.945 38.7348 141.253 38.3305 142.59 38.3305H156.1C156.349 38.3305 156.595 38.3816 156.824 38.4807C157.054 38.5799 157.262 38.7252 157.438 38.9084C157.614 39.0916 157.753 39.309 157.848 39.5484C157.943 39.7878 157.992 40.0443 157.992 40.3034V51.3742C157.992 51.5967 157.95 51.817 157.868 52.0226C157.787 52.2282 157.667 52.415 157.516 52.5724C157.365 52.7297 157.186 52.8545 156.989 52.9397C156.792 53.0249 156.58 53.0687 156.367 53.0687Z" fill="#65617D"/>
<path opacity="0.3" d="M184.356 38.3305H164.869C164.251 38.3305 163.75 38.8528 163.75 39.4971V51.9021C163.75 52.5464 164.251 53.0687 164.869 53.0687H184.356C184.974 53.0687 185.475 52.5464 185.475 51.9021V39.4971C185.475 38.8528 184.974 38.3305 184.356 38.3305Z" fill="#65617D"/>
<path d="M221.073 55.0952V55.1418L187.307 55.6411L186.428 35.4445H217.408L221.073 55.0952Z" fill="#33323D"/>
<path opacity="0.3" d="M213.935 38.4467H191.306C190.688 38.4467 190.188 38.969 190.188 39.6133V52.0182C190.188 52.6625 190.688 53.1848 191.306 53.1848H213.935C214.553 53.1848 215.054 52.6625 215.054 52.0182V39.6133C215.054 38.969 214.553 38.4467 213.935 38.4467Z" fill="#65617D"/>
<path d="M159.206 58.3705H151.541C151.345 58.3705 151.186 58.5364 151.186 58.7411V59.6374C151.186 59.8421 151.345 60.008 151.541 60.008H159.206C159.402 60.008 159.562 59.8421 159.562 59.6374V58.7411C159.562 58.5364 159.402 58.3705 159.206 58.3705Z" fill="#33323D"/>
<path d="M183.288 58.3705H175.623C175.427 58.3705 175.268 58.5364 175.268 58.7411V59.6374C175.268 59.8421 175.427 60.008 175.623 60.008H183.288C183.484 60.008 183.644 59.8421 183.644 59.6374V58.7411C183.644 58.5364 183.484 58.3705 183.288 58.3705Z" fill="#33323D"/>
<path d="M201.921 36.8168H192.229V46.7493H201.921V36.8168Z" fill="white"/>
<path d="M196.597 46.2847V45.1772C196.028 45.1753 195.471 45.0082 194.988 44.6946L195.241 43.9598C195.736 44.2652 196.3 44.428 196.875 44.4314C197.622 44.4314 198.127 43.9818 198.127 43.3567C198.127 42.7535 197.717 42.3807 196.938 42.0517C195.866 41.613 195.323 41.1086 195.323 40.1544C195.323 39.2443 195.883 38.5534 196.851 38.3889V37.2813H197.383V38.345C197.863 38.349 198.334 38.4811 198.75 38.7289L198.487 39.4526C198.11 39.2018 197.67 39.0721 197.222 39.0798C196.412 39.0798 196.227 39.5842 196.227 40.0229C196.227 40.5931 196.497 40.8783 197.412 41.2731C198.495 41.7336 199.162 42.3039 199.162 43.2799C199.162 44.1463 198.583 44.9578 197.5 45.1442V46.2848L196.597 46.2847Z" fill="#636780"/>
<path d="M85.6205 98.6709C85.6207 101.589 84.54 104.395 82.604 106.502C80.668 108.61 78.0263 109.856 75.2301 109.981C72.4339 110.107 69.6993 109.101 67.597 107.175C65.4947 105.248 64.1871 102.55 63.947 99.6424C63.9313 99.4585 63.9194 99.2746 63.9141 99.088V99.0784C63.9089 98.9426 63.9063 98.8067 63.9062 98.6709C63.91 95.6709 65.0555 92.7952 67.0912 90.6753C69.1269 88.5554 71.8863 87.3647 74.7634 87.3647C77.6405 87.3647 80.3999 88.5554 82.4356 90.6753C84.4713 92.7952 85.6168 95.6709 85.6205 98.6709Z" fill="#65617D"/>
<path d="M74.7639 104.846C78.0346 104.846 80.686 102.081 80.686 98.6708C80.686 95.2605 78.0346 92.4958 74.7639 92.4958C71.4932 92.4958 68.8418 95.2605 68.8418 98.6708C68.8418 102.081 71.4932 104.846 74.7639 104.846Z" fill="#DCE0ED"/>
<path d="M74.7642 102.376C76.7266 102.376 78.3174 100.717 78.3174 98.6708C78.3174 96.6246 76.7266 94.9659 74.7642 94.9659C72.8018 94.9659 71.2109 96.6246 71.2109 98.6708C71.2109 100.717 72.8018 102.376 74.7642 102.376Z" fill="#65617D"/>
<path d="M46.2514 77.1723L20.1074 77.7212V73.6964C20.3417 70.4621 23.5225 69.3273 26.4256 68.9719C28.6892 68.7039 30.9809 68.8832 33.1807 69.5002C38.7278 71.0316 42.2652 71.328 44.0024 71.3568C44.3845 71.3629 44.7529 71.5063 45.0454 71.7628C45.3379 72.0193 45.5366 72.3732 45.6079 72.7647C45.6908 73.2244 45.7724 73.7252 45.8487 74.2192C45.9066 74.6062 45.9619 74.9877 46.0119 75.3431C46.1554 76.3736 46.2514 77.1723 46.2514 77.1723Z" fill="#65617D"/>
<path d="M67.1092 99.4022H12.7984C12.3791 99.4067 11.9678 99.2825 11.6156 99.0451C11.2634 98.8077 10.986 98.4676 10.8178 98.067C10.4085 97.0475 10.981 96.397 11.5916 96.0156C12.8413 95.2433 13.7886 94.0349 14.2658 92.6042C14.8448 90.8272 15.4107 88.0293 15.6331 83.6684C15.8621 79.1579 17.4282 76.928 19.1206 75.8481H19.1219C21.3078 74.4539 23.7043 74.9767 23.7043 74.9767L45.7252 75.1606C46.1172 75.346 46.4797 75.5926 46.8004 75.892C48.7626 77.7966 45.9016 80.2831 45.9016 80.2831C39.7597 87.0522 44.4092 93.9133 44.4092 93.9133H55.6769C57.7822 93.9247 59.8409 93.2675 61.5793 92.0293C63.1019 90.9329 63.6915 89.8708 63.9192 89.2286C64.0929 88.7373 64.2692 88.2474 64.4798 87.7727C67.4356 81.0886 63.8705 70.2151 62.332 66.1492C61.9504 65.1379 61.6938 64.5479 61.6938 64.5479L65.2273 64.2693L67.4619 64.0923L67.4842 64.0909C72.4088 72.9472 74.2394 82.0478 74.8553 88.7908C74.9132 89.4262 74.9605 90.0423 74.9987 90.6337C75.0688 91.7585 74.9167 92.8863 74.5518 93.9472C74.1869 95.0082 73.617 95.9798 72.8774 96.8018C72.1378 97.6238 71.2442 98.2787 70.252 98.726C69.2598 99.1733 68.1901 99.4034 67.1092 99.4022Z" fill="#0099FF"/>
<path opacity="0.1" d="M46.0119 75.3431H20.1074V74.2193H45.8487C45.9066 74.6062 45.9619 74.9877 46.0119 75.3431Z" fill="black"/>
<path opacity="0.1" d="M46.7996 75.892H19.329C19.2576 75.8924 19.1868 75.8775 19.1211 75.8481C21.307 74.4539 23.7035 74.9767 23.7035 74.9767L45.7244 75.1606C46.1164 75.346 46.4789 75.5926 46.7996 75.892Z" fill="black"/>
<path d="M47.0293 74.4943H9.71833C9.42085 74.4943 9.17969 74.7457 9.17969 75.0559C9.17969 75.3661 9.42085 75.6176 9.71833 75.6176H47.0293C47.3268 75.6176 47.568 75.3661 47.568 75.0559C47.568 74.7457 47.3268 74.4943 47.0293 74.4943Z" fill="#DCE0ED"/>
<path opacity="0.1" d="M74.8546 88.7908C73.603 90.2097 72.6818 90.7682 72.7252 89.2711C72.8568 84.7428 65.2266 64.2693 65.2266 64.2693L67.4835 64.0909C72.4081 72.9472 74.2387 82.0478 74.8546 88.7908Z" fill="black"/>
<path opacity="0.1" d="M85.5547 97.4304C84.2584 97.7542 82.6555 98.0835 80.6788 98.3854C79.9445 98.4979 79.1566 98.6059 78.3153 98.7093C76.2978 98.959 73.9645 99.1772 71.2693 99.3446C70.506 99.3926 69.7133 99.4361 68.8912 99.475C67.3515 99.5477 65.7034 99.6035 63.947 99.6424L63.9141 99.088V99.0784C66.3684 98.0451 70.2296 95.2883 70.8521 88.1075C72.4032 87.4843 74.0709 87.2406 75.7265 87.3952C77.3822 87.5497 78.9818 88.0984 80.4021 88.999C81.8223 89.8996 83.0255 91.1281 83.9188 92.5898C84.8121 94.0516 85.3717 95.7076 85.5547 97.4304Z" fill="black"/>
<path d="M61.8691 99.4022C61.8691 99.4022 74.3318 97.9946 70.0416 78.1923C70.0416 78.1923 76.2 84.0782 80.0302 87.35C83.8604 90.6219 90.6874 95.132 90.6874 95.132C90.6874 95.132 86.6103 99.105 61.8691 99.4022Z" fill="#0099FF"/>
<path opacity="0.1" d="M61.8691 99.4022C61.8691 99.4022 74.3318 97.9946 70.0416 78.1923C70.0416 78.1923 76.2 84.0782 80.0302 87.35C83.8604 90.6219 90.6874 95.132 90.6874 95.132C90.6874 95.132 86.6103 99.105 61.8691 99.4022Z" fill="#0099FF"/>
<path d="M28.5739 109.992C34.5702 109.992 39.4311 104.923 39.4311 98.6708C39.4311 92.4185 34.5702 87.35 28.5739 87.35C22.5777 87.35 17.7168 92.4185 17.7168 98.6708C17.7168 104.923 22.5777 109.992 28.5739 109.992Z" fill="#65617D"/>
<path d="M28.5725 104.846C31.8432 104.846 34.4946 102.081 34.4946 98.6708C34.4946 95.2605 31.8432 92.4958 28.5725 92.4958C25.3018 92.4958 22.6504 95.2605 22.6504 98.6708C22.6504 102.081 25.3018 104.846 28.5725 104.846Z" fill="#DCE0ED"/>
<path d="M28.5728 102.376C30.5352 102.376 32.126 100.717 32.126 98.6708C32.126 96.6246 30.5352 94.9659 28.5728 94.9659C26.6104 94.9659 25.0195 96.6246 25.0195 98.6708C25.0195 100.717 26.6104 102.376 28.5728 102.376Z" fill="#65617D"/>
<path opacity="0.1" d="M40.7458 95.2711C40.7458 87.9602 35.1778 82.0336 28.3094 82.0336C21.441 82.0336 15.873 87.9602 15.873 95.2711C15.873 95.5796 15.8838 95.8853 15.9033 96.1885H40.7155C40.735 95.8853 40.7458 95.5796 40.7458 95.2711Z" fill="black"/>
<path d="M40.2855 95.0429C40.2855 88.0028 34.9238 82.2957 28.3097 82.2957C21.6957 82.2957 16.334 88.0028 16.334 95.0429C16.334 95.34 16.3443 95.6344 16.3631 95.9264H40.2564C40.2752 95.6344 40.2855 95.34 40.2855 95.0429Z" fill="#0099FF"/>
<path opacity="0.1" d="M40.2855 95.0427C40.2855 95.2472 40.2802 95.4502 40.271 95.652C40.2671 95.7439 40.2618 95.8345 40.2566 95.9264H16.3629C16.3577 95.8345 16.3524 95.7439 16.3485 95.652C16.3392 95.4502 16.334 95.2472 16.334 95.0427C16.334 88.0032 21.6954 82.2961 28.3097 82.2961C34.9241 82.2961 40.2855 88.0032 40.2855 95.0427Z" fill="#0099FF"/>
<path opacity="0.1" d="M40.2702 95.652C40.2663 95.7439 40.261 95.8345 40.2558 95.9264H16.3621C16.3569 95.8345 16.3516 95.7439 16.3477 95.652H40.2702Z" fill="black"/>
<path opacity="0.1" d="M72.715 76.8301C73.5081 76.4561 73.4188 74.4645 72.5155 72.3817C71.6122 70.2989 70.237 68.9136 69.4439 69.2876C68.6508 69.6616 68.7401 71.6532 69.6433 73.736C70.5466 75.8188 71.9218 77.204 72.715 76.8301Z" fill="black"/>
<path d="M72.8458 76.6928C73.6389 76.3188 73.5496 74.3272 72.6464 72.2445C71.7431 70.1617 70.3679 68.7764 69.5748 69.1504C68.7816 69.5244 68.8709 71.516 69.7742 73.5988C70.6775 75.6815 72.0527 77.0668 72.8458 76.6928Z" fill="#DCE0ED"/>
<path opacity="0.1" d="M67.4614 64.0923V66.2426H63.4476C63.0738 66.2429 62.7006 66.2117 62.3316 66.1492C61.95 65.1379 61.6934 64.5479 61.6934 64.5479L65.2269 64.2693L67.4614 64.0923Z" fill="black"/>
<path d="M67.461 65.9679H63.4471C59.9221 65.9679 57.0645 63.2179 57.0645 59.8255V59.2556C57.0645 55.8632 59.9221 53.1131 63.4471 53.1131L67.461 53.4931V65.9679Z" fill="#0099FF"/>
<path d="M60.849 56.7495C60.849 56.7495 63.2508 58.0875 61.8689 60.3516C61.8689 60.3516 60.1746 63.2504 57.5096 62.976L56.5391 56.7495C56.5391 56.7495 59.7304 56.4408 60.849 56.7495Z" fill="#65617D"/>
<path opacity="0.1" d="M59.9271 56.6286C60.3084 56.6441 60.6815 56.7486 61.0189 56.9343C61.3564 57.1199 61.6497 57.3821 61.8772 57.7015C62.3049 58.319 62.5598 59.2196 61.8689 60.3516C61.8689 60.3516 60.1746 63.2504 57.5096 62.976L56.5391 56.7496C57.6653 56.642 58.7965 56.6016 59.9271 56.6286Z" fill="#65617D"/>
<path opacity="0.1" d="M67.3301 53.4931C67.7535 53.4931 68.1728 53.58 68.5639 53.749C68.9551 53.918 69.3106 54.1656 69.61 54.4778C69.9094 54.79 70.1469 55.1606 70.3089 55.5685C70.4709 55.9764 70.5543 56.4135 70.5543 56.855V62.606C70.5543 63.4976 70.2146 64.3527 69.61 64.9832C69.0053 65.6137 68.1852 65.9679 67.3301 65.9679V53.4931Z" fill="black"/>
<path d="M67.4609 53.4931C68.3161 53.4931 69.1362 53.8473 69.7408 54.4778C70.3455 55.1083 70.6852 55.9634 70.6852 56.855V62.606C70.6852 63.4976 70.3455 64.3527 69.7408 64.9832C69.1362 65.6137 68.3161 65.9679 67.4609 65.9679V53.4931Z" fill="#DCE0ED"/>
<path d="M56.2604 63.3705C57.7332 63.3705 58.9271 61.856 58.9271 59.9878C58.9271 58.1196 57.7332 56.6051 56.2604 56.6051C54.7877 56.6051 53.5938 58.1196 53.5938 59.9878C53.5938 61.856 54.7877 63.3705 56.2604 63.3705Z" fill="#0099FF"/>
<path d="M27.8633 75.6254L29.0285 78.3307L30.9757 75.6254" stroke="black" stroke-miterlimit="10"/>
<path d="M33.6791 78.4438H24.1777V88.1801H33.6791V78.4438Z" fill="white"/>
<path d="M28.4602 87.7247V86.639C27.9025 86.6372 27.3563 86.4734 26.8828 86.166L27.1302 85.4458C27.6156 85.7451 28.1686 85.9046 28.7325 85.908C29.4644 85.908 29.9593 85.4673 29.9593 84.8545C29.9593 84.2633 29.5573 83.8978 28.7943 83.5753C27.7427 83.1453 27.2109 82.6508 27.2109 81.7155C27.2109 80.8233 27.7603 80.1461 28.7088 79.9848V78.8991H29.2303V79.9418C29.7006 79.9457 30.1621 80.0752 30.5706 80.3181L30.3129 81.0275C29.9427 80.7816 29.5115 80.6546 29.0727 80.6621C28.2788 80.6621 28.0975 81.1565 28.0975 81.5865C28.0975 82.1455 28.3613 82.4251 29.2582 82.8121C30.3201 83.2635 30.9738 83.8225 30.9738 84.7793C30.9738 85.6285 30.4068 86.424 29.345 86.6067V87.7247L28.4602 87.7247Z" fill="#636780"/>
<path d="M11.7146 52.7065H10.3008V75.4513H11.7146V52.7065Z" fill="#DCE0ED"/>
<path d="M10.3007 52.7065C10.3007 52.7065 5.04937 52.9171 4.0395 53.3383C3.02962 53.7595 0 53.5489 0 53.5489V59.4457C0 59.4457 3.43357 58.6033 5.25135 59.2351C7.06912 59.8669 10.9066 58.3927 10.9066 58.3927L10.3007 52.7065Z" fill="#DCE0ED"/>
</g>
<defs>
<clipPath id="clip0">
<rect width="225" height="125" fill="white" transform="translate(0 0.736542)"/>
</clipPath>
</defs>
</svg>
