<svg width="160" height="137" viewBox="0 0 160 137" fill="none" xmlns="http://www.w3.org/2000/svg">
<g clip-path="url(#clip0)">
<g opacity="0.5">
<path opacity="0.5" d="M88.338 0.741064L73.3965 99.157L145.07 109.904L160.011 11.488L88.338 0.741064Z" fill="url(#paint0_linear)"/>
</g>
<path d="M89.1406 1.60301L74.5293 97.8434L144.379 108.317L158.99 12.0765L89.1406 1.60301Z" fill="#F5F5F5"/>
<path d="M142.519 52.2935L92.1055 44.7344L91.6444 47.7712L142.058 55.3303L142.519 52.2935Z" fill="#E0E0E0"/>
<path d="M141.367 59.8837L90.9531 52.3246L90.4921 55.3614L140.906 62.9205L141.367 59.8837Z" fill="#E0E0E0"/>
<path d="M146.206 28.0016L120.234 24.1074L119.773 27.1442L145.744 31.0384L146.206 28.0016Z" fill="#E0E0E0"/>
<path d="M142.763 35.2502L121.375 32.0432L120.914 35.0799L142.302 38.287L142.763 35.2502Z" fill="#0099FF"/>
<path d="M134.103 66.559L89.7988 59.916L89.3378 62.9527L133.642 69.5958L134.103 66.559Z" fill="#E0E0E0"/>
<path d="M126.839 73.234L88.6465 67.5074L88.1854 70.5442L126.378 76.2708L126.839 73.234Z" fill="#E0E0E0"/>
<path d="M121.104 80.1378L87.4941 75.0983L87.0331 78.1351L120.643 83.1746L121.104 80.1378Z" fill="#E0E0E0"/>
<path d="M129.117 89.1034L86.3418 82.6896L85.8807 85.7264L128.656 92.1402L129.117 89.1034Z" fill="#E0E0E0"/>
<path d="M101.993 92.7995L85.1895 90.2799L84.7284 93.3167L101.532 95.8363L101.993 92.7995Z" fill="#6C63FF"/>
<g opacity="0.5">
<path opacity="0.5" d="M115.312 28.2843C115.577 26.5348 115.382 24.7469 114.746 23.0945C114.11 21.4422 113.054 19.9816 111.681 18.8551C110.308 17.7285 108.666 16.9743 106.913 16.6659C105.16 16.3574 103.356 16.5052 101.678 17.0949C99.9993 17.6846 98.503 18.6961 97.3346 20.0309C96.1662 21.3657 95.3654 22.9784 95.0101 24.712C94.6549 26.4456 94.7573 28.2411 95.3074 29.9237C95.8575 31.6064 96.8366 33.1188 98.1493 34.3138C98.1493 34.3284 98.1493 34.3447 98.1493 34.3593C98.4336 34.7281 98.7887 35.0372 99.1941 35.2685L99.2142 35.2248C99.6296 35.703 101.542 36.6558 103.852 36.9959H103.904C105.367 37.2177 106.994 37.1977 108.504 36.6558C108.504 36.6558 108.52 36.6304 108.547 36.5831C108.927 36.4707 109.285 36.2981 109.609 36.0722L109.642 35.9594C111.142 35.2323 112.441 34.1538 113.429 32.8168C114.417 31.4799 115.063 29.9244 115.312 28.2843Z" fill="url(#paint1_linear)"/>
</g>
<path d="M114.96 27.8652C115.784 22.4365 112.024 17.3717 106.561 16.5526C101.099 15.7335 96.0021 19.4704 95.1779 24.8991C94.3537 30.3278 98.1139 35.3926 103.576 36.2117C109.039 37.0308 114.135 33.2939 114.96 27.8652Z" fill="#F5F5F5"/>
<path d="M100.509 29.6571C100.509 29.6571 98.1307 29.4953 98.0996 33.8556C98.3757 34.2121 98.7203 34.5106 99.1132 34.7339L101.115 30.4735L100.509 29.6571Z" fill="#FDA57D"/>
<path d="M108.157 30.8044C108.157 30.8044 110.485 31.3499 109.215 35.523C108.846 35.7839 108.428 35.9694 107.985 36.0685L107.336 31.4118L108.157 30.8044Z" fill="#FDA57D"/>
<path d="M101.673 22.6819C101.673 22.6819 100.06 25.7567 99.4941 25.3603C99.4941 25.3603 104.628 31.3117 110.609 27.0259C110.144 25.8676 109.541 24.7687 108.813 23.7529L101.673 22.6819Z" fill="#333333"/>
<path d="M109.896 23.6063C110.261 21.2003 108.594 18.9555 106.173 18.5925C103.752 18.2295 101.493 19.8857 101.128 22.2917C100.763 24.6977 102.429 26.9425 104.85 27.3055C107.272 27.6685 109.53 26.0123 109.896 23.6063Z" fill="#333333"/>
<path opacity="0.1" d="M108.112 30.7972L100.464 29.6516L99.2891 32.5846C99.2891 32.5846 98.656 33.9283 99.0842 34.6266C99.5123 35.3248 104.169 37.4613 108.05 36.0812C108.485 35.3173 108.656 34.4326 108.536 33.5628C108.344 32.0827 108.45 33.4465 108.45 33.4465L108.112 30.7972Z" fill="black"/>
<path opacity="0.1" d="M108.214 30.8135L100.565 29.668L99.3926 32.5991C99.3926 32.5991 98.7595 33.9429 99.1877 34.6411C99.6158 35.3393 104.272 37.4759 108.153 36.0958C108.588 35.3319 108.759 34.4472 108.64 33.5774C108.448 32.0973 108.554 33.461 108.554 33.461L108.214 30.8135Z" fill="black"/>
<path d="M108.159 30.8044L100.511 29.6589L99.336 32.5918C99.336 32.5918 98.7029 33.9356 99.131 34.6338C99.5592 35.3321 104.216 37.4686 108.096 36.0885C108.532 35.3246 108.703 34.4399 108.583 33.5701C108.391 32.09 108.497 33.4537 108.497 33.4537L108.159 30.8044Z" fill="#FDD835"/>
<path opacity="0.1" d="M103.236 27.4959L106.296 27.9546L105.879 30.6983C105.83 31.0192 105.655 31.3078 105.392 31.5005C105.13 31.6932 104.801 31.7742 104.478 31.7258L103.852 31.6319C103.529 31.5835 103.238 31.4096 103.045 31.1484C102.851 30.8873 102.769 30.5602 102.818 30.2393L103.234 27.4956L103.236 27.4959Z" fill="black"/>
<path d="M103.252 27.3832L106.311 27.842L105.895 30.5857C105.846 30.9066 105.671 31.1951 105.408 31.3878C105.145 31.5805 104.816 31.6616 104.493 31.6132L103.869 31.5196C103.546 31.4711 103.256 31.2972 103.062 31.0361C102.868 30.7749 102.787 30.4479 102.835 30.127L103.252 27.3832Z" fill="#FDA57D"/>
<path opacity="0.1" d="M103.193 27.8133C104.124 28.3272 105.208 28.493 106.251 28.2806L106.307 27.9078L103.248 27.4496L103.193 27.8133Z" fill="black"/>
<path d="M109.753 24.5512C110.118 22.1452 108.452 19.9005 106.031 19.5374C103.61 19.1744 101.351 20.8306 100.986 23.2366C100.62 25.6427 102.287 27.8874 104.708 28.2504C107.129 28.6135 109.388 26.9573 109.753 24.5512Z" fill="#FDA57D"/>
<path d="M101.42 21.6073L109.782 22.8601C109.782 22.8601 109.577 19.4053 106.384 19.138C103.191 18.8707 101.42 21.6073 101.42 21.6073Z" fill="#333333"/>
<path d="M101.51 23.1238C101.573 22.7038 101.443 22.3359 101.218 22.3022C100.993 22.2685 100.759 22.5817 100.696 23.0017C100.632 23.4218 100.762 23.7896 100.987 23.8233C101.212 23.857 101.446 23.5438 101.51 23.1238Z" fill="#FDA57D"/>
<path d="M110.076 24.4088C110.14 23.9888 110.009 23.621 109.784 23.5872C109.56 23.5535 109.326 23.8667 109.262 24.2868C109.198 24.7068 109.329 25.0746 109.554 25.1083C109.778 25.142 110.012 24.8289 110.076 24.4088Z" fill="#FDA57D"/>
<path opacity="0.1" d="M101.406 21.7201L109.768 22.9729C109.768 22.9729 109.563 19.5181 106.37 19.2508C103.177 18.9835 101.406 21.7201 101.406 21.7201Z" fill="black"/>
<g opacity="0.5">
<path opacity="0.5" d="M71.8203 14.8815L0.0605469 26.407L16.0847 124.942L87.8445 113.416L71.8203 14.8815Z" fill="url(#paint2_linear)"/>
</g>
<path d="M70.741 15.4568L1.03125 26.8138L16.8752 122.861L86.5849 111.504L70.741 15.4568Z" fill="#F5F5F5"/>
<path d="M67.5097 58.749L17.1973 66.9459L17.6972 69.9766L68.0097 61.7797L67.5097 58.749Z" fill="#E0E0E0"/>
<path d="M68.7597 66.3254L18.4473 74.5222L18.9472 77.5529L69.2597 69.3561L68.7597 66.3254Z" fill="#E0E0E0"/>
<path d="M63.5128 34.5066L37.5938 38.7293L38.0937 41.76L64.0128 37.5373L63.5128 34.5066Z" fill="#E0E0E0"/>
<path d="M62.4744 42.4556L41.1289 45.9332L41.6288 48.9639L62.9744 45.4863L62.4744 42.4556Z" fill="#0099FF"/>
<path d="M63.9123 74.8947L19.6973 82.0981L20.1972 85.1288L64.4122 77.9254L63.9123 74.8947Z" fill="#E0E0E0"/>
<path d="M59.0611 83.4626L20.9453 89.6724L21.4453 92.7031L59.561 86.4933L59.0611 83.4626Z" fill="#E0E0E0"/>
<path d="M55.7375 91.785L22.1953 97.2496L22.6953 100.28L56.2375 94.8157L55.7375 91.785Z" fill="#E0E0E0"/>
<path d="M66.1346 97.8691L23.4453 104.824L23.9453 107.855L66.6345 100.9L66.1346 97.8691Z" fill="#E0E0E0"/>
<path d="M41.4655 109.669L24.6953 112.401L25.1953 115.432L41.9655 112.699L41.4655 109.669Z" fill="#0099FF"/>
<g opacity="0.5">
<path opacity="0.5" d="M35.1367 43.5509C34.8403 41.7561 34.0815 40.0681 32.9341 38.6513C31.7866 37.2344 30.2896 36.1368 28.5888 35.4654C26.8879 34.794 25.0411 34.5717 23.2281 34.82C21.4151 35.0683 19.6977 35.7788 18.2429 36.8823C16.7882 37.9859 15.6457 39.445 14.9267 41.1175C14.2077 42.79 13.9366 44.619 14.1398 46.4266C14.343 48.2341 15.0136 49.9585 16.0864 51.4321C17.1591 52.9057 18.5974 54.0782 20.2614 54.8354L20.276 54.8809C20.6714 55.1506 21.1167 55.3397 21.5861 55.4373V55.3882C22.1441 55.7264 24.3178 56.0592 26.6872 55.6664H26.7384C28.2406 55.4246 29.8251 54.8936 31.1297 53.8899C31.1297 53.8899 31.1297 53.8608 31.148 53.8063C31.4833 53.5774 31.7793 53.2962 32.0244 52.9735C32.0244 52.9323 32.0244 52.8923 32.0244 52.8535C33.2638 51.6702 34.1947 50.205 34.737 48.5843C35.2792 46.9636 35.4164 45.2361 35.1367 43.5509Z" fill="url(#paint3_linear)"/>
</g>
<path d="M26.3416 55.3362C31.9458 54.4231 35.7441 49.168 34.8254 43.5986C33.9067 38.0291 28.6188 34.2543 23.0145 35.1674C17.4103 36.0804 13.612 41.3355 14.5307 46.9049C15.4494 52.4744 20.7373 56.2492 26.3416 55.3362Z" fill="#F5F5F5"/>
<path d="M20.9355 49.9133C20.9355 49.9133 18.5569 50.5042 19.9109 54.7773C20.2942 55.041 20.7265 55.2264 21.1825 55.3228L21.7881 50.526L20.9355 49.9133Z" fill="#4D8AF0"/>
<path d="M28.7809 48.635C28.7809 48.635 31.2309 48.4368 31.3132 52.9208C31.0334 53.2883 30.6834 53.5973 30.2831 53.8299L28.168 49.4769L28.7809 48.635Z" fill="#4D8AF0"/>
<path d="M24.4274 46.2459C26.9115 45.8412 28.595 43.5119 28.1878 41.0433C27.7806 38.5747 25.4368 36.9016 22.9528 37.3063C20.4688 37.711 18.7852 40.0403 19.1924 42.5089C19.5996 44.9775 21.9434 46.6506 24.4274 46.2459Z" fill="#333333"/>
<path d="M28.7345 48.6422L20.8889 49.915L20.6711 53.1535C20.6711 53.1535 20.4882 54.6681 21.1194 55.2155C21.7506 55.7628 26.9963 56.3937 30.3428 53.819C30.526 52.9351 30.4122 52.0159 30.019 51.2024C29.3603 49.815 29.8964 51.1151 29.8964 51.1151L28.7345 48.6422Z" fill="#4D8AF0"/>
<path d="M28.84 48.6259L20.9943 49.8987L20.7766 53.1371C20.7766 53.1371 20.5936 54.6518 21.2249 55.1991C21.8561 55.7464 27.1018 56.3774 30.4483 53.8026C30.6314 52.9187 30.5177 51.9995 30.1244 51.1861C29.4657 49.7987 30.0018 51.0988 30.0018 51.0988L28.84 48.6259Z" fill="#4D8AF0"/>
<path d="M28.7814 48.6349L20.9357 49.9078L20.718 53.1517C20.718 53.1517 20.535 54.6663 21.1663 55.2137C21.7975 55.761 27.0432 56.3919 30.3897 53.8172C30.5729 52.9333 30.4591 52.0141 30.0658 51.2006C29.4071 49.8132 29.9432 51.1133 29.9432 51.1133L28.7814 48.6349Z" fill="#4D8AF0"/>
<path opacity="0.1" d="M22.9178 46.9317L26.0559 46.4204L26.5257 49.2681C26.5785 49.5884 26.5011 49.9164 26.3106 50.18C26.1201 50.4436 25.832 50.6212 25.5097 50.6737L24.8001 50.7893C24.4778 50.8418 24.1478 50.7649 23.8825 50.5755C23.6173 50.3862 23.4386 50.0999 23.3858 49.7796L22.916 46.9319L22.9178 46.9317Z" fill="black"/>
<path d="M22.8983 46.8161L26.0364 46.3049L26.5061 49.1525C26.559 49.4728 26.4816 49.8008 26.2911 50.0644C26.1006 50.328 25.8125 50.5056 25.4902 50.5581L24.7806 50.6737C24.4583 50.7262 24.1283 50.6494 23.863 50.46C23.5978 50.2707 23.4191 49.9844 23.3662 49.6641L22.8965 46.8164L22.8983 46.8161Z" fill="#FDA57D"/>
<path opacity="0.1" d="M22.9743 47.2657C24.0476 47.477 25.1616 47.2989 26.1141 46.7639L26.05 46.3802L22.9121 46.893L22.9743 47.2657Z" fill="black"/>
<path d="M24.5895 47.2164C27.0736 46.8117 28.7571 44.4824 28.3499 42.0139C27.9427 39.5453 25.5989 37.8721 23.1149 38.2768C20.6309 38.6815 18.9473 41.0108 19.3545 43.4794C19.7617 45.948 22.1055 47.6211 24.5895 47.2164Z" fill="#FDA57D"/>
<path opacity="0.1" d="M19.2871 41.8653L27.8665 40.4688C27.8665 40.4688 26.5656 37.1449 23.36 37.8941C20.1544 38.6432 19.2871 41.8653 19.2871 41.8653Z" fill="black"/>
<path d="M19.2676 41.7507L27.8543 40.3524C27.8543 40.3524 26.5534 37.0285 23.3478 37.7777C20.1422 38.5268 19.2676 41.7507 19.2676 41.7507Z" fill="#333333"/>
<path d="M19.5968 44.3218C19.8289 44.2845 19.96 43.9037 19.8897 43.4712C19.8194 43.0387 19.5742 42.7183 19.3421 42.7556C19.11 42.7929 18.9789 43.1737 19.0492 43.6062C19.1196 44.0387 19.3647 44.359 19.5968 44.3218Z" fill="#FDA57D"/>
<path d="M28.3288 42.6214C28.5601 42.5837 28.69 42.2037 28.6189 41.7726C28.5478 41.3415 28.3026 41.0226 28.0712 41.0603C27.8399 41.098 27.71 41.478 27.7811 41.9091C27.8522 42.3402 28.0974 42.6591 28.3288 42.6214Z" fill="#FDA57D"/>
<g opacity="0.5">
<path opacity="0.5" d="M124.197 30.8245H51.7129V130.354H124.197V30.8245Z" fill="url(#paint4_linear)"/>
</g>
<path d="M123.275 31.5573H52.6348V128.887H123.275V31.5573Z" fill="white"/>
<g opacity="0.5">
<path opacity="0.5" d="M62.0684 53.8263C62.0686 51.9667 62.5532 50.1388 63.4751 48.5205C64.397 46.9022 65.7248 45.5487 67.3292 44.5916C68.9337 43.6346 70.7601 43.1066 72.6307 43.0592C74.5013 43.0117 76.3525 43.4463 78.004 44.3207C79.6554 45.1951 81.051 46.4796 82.0548 48.049C83.0586 49.6184 83.6365 51.4193 83.7322 53.2765C83.8279 55.1337 83.4382 56.9839 82.6009 58.647C81.7637 60.3102 80.5074 61.7295 78.9545 62.767V62.8143C78.6004 63.152 78.1825 63.4165 77.7249 63.5925L77.7103 63.5453C77.2035 63.978 75.0664 64.6708 72.611 64.6635H72.5579C71.0027 64.6635 69.3157 64.3908 67.83 63.5925C67.83 63.5925 67.8172 63.5635 67.7971 63.5107C67.4206 63.3349 67.0752 63.0997 66.7743 62.8143L66.7578 62.6925C65.3114 61.7032 64.1287 60.3793 63.3118 58.8347C62.4948 57.2901 62.0681 55.5713 62.0684 53.8263Z" fill="url(#paint5_linear)"/>
</g>
<path d="M72.9059 64.2744C78.7123 64.2744 83.4193 59.5966 83.4193 53.8263C83.4193 48.056 78.7123 43.3782 72.9059 43.3782C67.0996 43.3782 62.3926 48.056 62.3926 53.8263C62.3926 59.5966 67.0996 64.2744 72.9059 64.2744Z" fill="#F5F5F5"/>
<path d="M68.7821 57.8066C68.7821 57.8066 66.2773 58.0085 66.9396 62.5543C67.2831 62.8817 67.6886 63.1382 68.1326 63.3089L69.5414 58.5685L68.7821 57.8066Z" fill="#BE7C5E"/>
<path d="M76.9101 57.8066C76.9101 57.8066 79.4149 58.0085 78.7526 62.5543C78.409 62.8817 78.0036 63.1382 77.5596 63.3089L76.1562 58.554L76.9101 57.8066Z" fill="#BE7C5E"/>
<path d="M68.8898 50.3715C68.8898 50.3715 68.6977 50.9297 68.4233 51.5752C67.8268 52.9862 68.5074 58.4085 69.9346 58.9867C71.5356 59.6358 73.6415 60.0504 75.828 59.2576C77.729 58.5685 78.3145 52.3971 76.9715 50.8933C76.8142 50.7115 76.6495 50.5424 76.4775 50.3715H68.8898Z" fill="#333333"/>
<path d="M72.9122 54.6809C75.4859 54.6809 77.5723 52.6074 77.5723 50.0496C77.5723 47.4918 75.4859 45.4183 72.9122 45.4183C70.3384 45.4183 68.252 47.4918 68.252 50.0496C68.252 52.6074 70.3384 54.6809 72.9122 54.6809Z" fill="#333333"/>
<path opacity="0.1" d="M76.8632 57.8066H68.7339L67.9746 61.0378C67.9746 61.0378 67.5282 62.5343 68.0826 63.1925C68.637 63.8508 73.8149 65.3472 77.6207 63.2998C77.9523 62.4381 77.9902 61.4921 77.7286 60.6069C77.295 59.0995 77.6207 60.4996 77.6207 60.4996L76.8632 57.8066Z" fill="black"/>
<path opacity="0.1" d="M76.9704 57.8066H68.8374L68.0781 61.0378C68.0781 61.0378 67.6317 62.5343 68.1861 63.1925C68.7405 63.8508 73.9185 65.3472 77.7242 63.2998C78.0558 62.4381 78.0937 61.4921 77.8321 60.6069C77.3985 59.0995 77.7242 60.4996 77.7242 60.4996L76.9704 57.8066Z" fill="black"/>
<path d="M76.91 57.8066H68.7808L68.0215 61.0378C68.0215 61.0378 67.575 62.5343 68.1294 63.1925C68.6838 63.8508 73.8618 65.3472 77.6675 63.2998C77.9991 62.4381 78.037 61.4921 77.7755 60.6069C77.3418 59.0995 77.6675 60.4996 77.6675 60.4996L76.91 57.8066Z" fill="#3AD29F"/>
<path opacity="0.1" d="M71.2753 55.1246H74.5266V58.103C74.5266 58.4275 74.3969 58.7388 74.1659 58.9683C73.935 59.1978 73.6218 59.3267 73.2952 59.3267H72.5048C72.1782 59.3267 71.865 59.1978 71.6341 58.9683C71.4032 58.7388 71.2734 58.4275 71.2734 58.103V55.1246H71.2753Z" fill="black"/>
<path d="M71.2753 55.0046H74.5266V57.983C74.5266 58.3075 74.3969 58.6188 74.1659 58.8483C73.935 59.0778 73.6218 59.2067 73.2952 59.2067H72.5048C72.1782 59.2067 71.865 59.0778 71.6341 58.8483C71.4032 58.6188 71.2734 58.3075 71.2734 57.983V55.0046H71.2753Z" fill="#BE7C5E"/>
<path opacity="0.1" d="M71.2812 55.4627C72.3302 55.8489 73.4836 55.8489 74.5326 55.4627V55.0663H71.2812V55.4627Z" fill="black"/>
<path d="M72.9122 55.6865C75.4859 55.6865 77.5723 53.613 77.5723 51.0552C77.5723 48.4974 75.4859 46.4239 72.9122 46.4239C70.3384 46.4239 68.252 48.4974 68.252 51.0552C68.252 53.613 70.3384 55.6865 72.9122 55.6865Z" fill="#BE7C5E"/>
<path d="M68.4551 49.2968H77.3437C77.3437 49.2968 76.5843 45.7293 73.2251 45.9584C69.8658 46.1875 68.4551 49.2968 68.4551 49.2968Z" fill="#333333"/>
<path d="M68.3496 51.6661C68.5891 51.6661 68.7833 51.3047 68.7833 50.8588C68.7833 50.4129 68.5891 50.0515 68.3496 50.0515C68.1102 50.0515 67.916 50.4129 67.916 50.8588C67.916 51.3047 68.1102 51.6661 68.3496 51.6661Z" fill="#BE7C5E"/>
<path d="M77.4532 51.6661C77.6927 51.6661 77.8868 51.3047 77.8868 50.8588C77.8868 50.4129 77.6927 50.0515 77.4532 50.0515C77.2137 50.0515 77.0195 50.4129 77.0195 50.8588C77.0195 51.3047 77.2137 51.6661 77.4532 51.6661Z" fill="#BE7C5E"/>
<path opacity="0.1" d="M68.4551 49.415H77.3437C77.3437 49.415 76.5843 45.8475 73.2251 46.0766C69.8658 46.3057 68.4551 49.415 68.4551 49.415Z" fill="black"/>
<path d="M113.037 73.7606H62.0527V76.8317H113.037V73.7606Z" fill="#E0E0E0"/>
<path d="M113.037 81.4376H62.0527V84.5087H113.037V81.4376Z" fill="#E0E0E0"/>
<path d="M113.04 49.195H86.7754V52.2662H113.04V49.195Z" fill="#E0E0E0"/>
<path d="M110.72 56.872H89.0898V59.9431H110.72V56.872Z" fill="#0099FF"/>
<path d="M106.858 89.1146H62.0527V92.1857H106.858V89.1146Z" fill="#E0E0E0"/>
<path d="M100.677 96.7916H62.0527V99.8627H100.677V96.7916Z" fill="#E0E0E0"/>
<path d="M96.0427 104.47H62.0527V107.541H96.0427V104.47Z" fill="#E0E0E0"/>
<path d="M105.312 112.147H62.0527V115.218H105.312V112.147Z" fill="#E0E0E0"/>
<path d="M79.0468 119.824H62.0527V122.896H79.0468V119.824Z" fill="#0099FF"/>
<g opacity="0.5">
<path opacity="0.5" d="M119.308 136.738C127.835 136.738 134.749 129.868 134.749 121.394C134.749 112.919 127.835 106.049 119.308 106.049C110.78 106.049 103.867 112.919 103.867 121.394C103.867 129.868 110.78 136.738 119.308 136.738Z" fill="url(#paint6_linear)"/>
</g>
<path d="M119.309 135.835C127.334 135.835 133.84 129.369 133.84 121.394C133.84 113.418 127.334 106.952 119.309 106.952C111.283 106.952 104.777 113.418 104.777 121.394C104.777 129.369 111.283 135.835 119.309 135.835Z" fill="#0099FF"/>
<path d="M113.001 119.466L118.45 124.43L126.169 113.149L128.896 115.406L118.45 128.943L110.73 120.37L113.001 119.466Z" fill="white"/>
</g>
<defs>
<linearGradient id="paint0_linear" x1="109.233" y1="104.53" x2="123.994" y2="6.08741" gradientUnits="userSpaceOnUse">
<stop stop-color="#808080" stop-opacity="0.25"/>
<stop offset="0.54" stop-color="#808080" stop-opacity="0.12"/>
<stop offset="1" stop-color="#808080" stop-opacity="0.1"/>
</linearGradient>
<linearGradient id="paint1_linear" x1="12085.2" y1="15076.5" x2="12431" y2="12770.6" gradientUnits="userSpaceOnUse">
<stop stop-color="#808080" stop-opacity="0.25"/>
<stop offset="0.54" stop-color="#808080" stop-opacity="0.12"/>
<stop offset="1" stop-color="#808080" stop-opacity="0.1"/>
</linearGradient>
<linearGradient id="paint2_linear" x1="40259.7" y1="32493.7" x2="31594.3" y2="-21458.1" gradientUnits="userSpaceOnUse">
<stop stop-color="#808080" stop-opacity="0.25"/>
<stop offset="0.54" stop-color="#808080" stop-opacity="0.12"/>
<stop offset="1" stop-color="#808080" stop-opacity="0.1"/>
</linearGradient>
<linearGradient id="paint3_linear" x1="8305.88" y1="-812.245" x2="7911" y2="-3236.01" gradientUnits="userSpaceOnUse">
<stop stop-color="#808080" stop-opacity="0.25"/>
<stop offset="0.54" stop-color="#808080" stop-opacity="0.12"/>
<stop offset="1" stop-color="#808080" stop-opacity="0.1"/>
</linearGradient>
<linearGradient id="paint4_linear" x1="34895.8" y1="70979.6" x2="34895.8" y2="16500" gradientUnits="userSpaceOnUse">
<stop stop-color="#808080" stop-opacity="0.25"/>
<stop offset="0.54" stop-color="#808080" stop-opacity="0.12"/>
<stop offset="1" stop-color="#808080" stop-opacity="0.1"/>
</linearGradient>
<linearGradient id="paint5_linear" x1="11012.8" y1="9282.61" x2="11012.8" y2="6714.51" gradientUnits="userSpaceOnUse">
<stop stop-color="#808080" stop-opacity="0.25"/>
<stop offset="0.54" stop-color="#808080" stop-opacity="0.12"/>
<stop offset="1" stop-color="#808080" stop-opacity="0.1"/>
</linearGradient>
<linearGradient id="paint6_linear" x1="20240.7" y1="23060.1" x2="20240.7" y2="17880.6" gradientUnits="userSpaceOnUse">
<stop stop-color="#808080" stop-opacity="0.25"/>
<stop offset="0.54" stop-color="#808080" stop-opacity="0.12"/>
<stop offset="1" stop-color="#808080" stop-opacity="0.1"/>
</linearGradient>
<clipPath id="clip0">
<rect width="160" height="136" fill="white" transform="translate(0 0.736572)"/>
</clipPath>
</defs>
</svg>
