<svg width="102" height="159" viewBox="0 0 102 159" fill="none" xmlns="http://www.w3.org/2000/svg">
<g opacity="0.8">
<rect width="6" height="6.23438" rx="1" fill="#0099FF"/>
<rect y="87.2812" width="6" height="6.23438" rx="1" fill="#0099FF"/>
<rect y="21.8203" width="6" height="6.23438" rx="1" fill="#0099FF"/>
<rect y="109.102" width="6" height="6.23438" rx="1" fill="#0099FF"/>
<rect y="43.6406" width="6" height="6.23438" rx="1" fill="#0099FF"/>
<rect y="130.922" width="6" height="6.23438" rx="1" fill="#0099FF"/>
<rect y="65.4609" width="6" height="6.23438" rx="1" fill="#0099FF"/>
<rect y="152.742" width="6" height="6.23438" rx="1" fill="#0099FF"/>
<rect x="16" width="6" height="6.23438" rx="1" fill="#0099FF"/>
<rect x="16" y="87.2812" width="6" height="6.23438" rx="1" fill="#0099FF"/>
<rect x="16" y="21.8203" width="6" height="6.23438" rx="1" fill="#0099FF"/>
<rect x="16" y="109.102" width="6" height="6.23438" rx="1" fill="#0099FF"/>
<rect x="16" y="43.6406" width="6" height="6.23438" rx="1" fill="#0099FF"/>
<rect x="16" y="130.922" width="6" height="6.23438" rx="1" fill="#0099FF"/>
<rect x="16" y="65.4609" width="6" height="6.23438" rx="1" fill="#0099FF"/>
<rect x="16" y="152.742" width="6" height="6.23438" rx="1" fill="#0099FF"/>
<rect x="32" width="6" height="6.23438" rx="1" fill="#0099FF"/>
<rect x="32" y="87.2812" width="6" height="6.23438" rx="1" fill="#0099FF"/>
<rect x="32" y="21.8203" width="6" height="6.23438" rx="1" fill="#0099FF"/>
<rect x="32" y="109.102" width="6" height="6.23438" rx="1" fill="#0099FF"/>
<rect x="32" y="43.6406" width="6" height="6.23438" rx="1" fill="#0099FF"/>
<rect x="32" y="130.922" width="6" height="6.23438" rx="1" fill="#0099FF"/>
<rect x="32" y="65.4609" width="6" height="6.23438" rx="1" fill="#0099FF"/>
<rect x="32" y="152.742" width="6" height="6.23438" rx="1" fill="#0099FF"/>
<rect x="48" width="6" height="6.23438" rx="1" fill="#0099FF"/>
<rect x="48" y="87.2812" width="6" height="6.23438" rx="1" fill="#0099FF"/>
<rect x="48" y="21.8203" width="6" height="6.23438" rx="1" fill="#0099FF"/>
<rect x="48" y="109.102" width="6" height="6.23438" rx="1" fill="#0099FF"/>
<rect x="48" y="43.6406" width="6" height="6.23438" rx="1" fill="#0099FF"/>
<rect x="48" y="130.922" width="6" height="6.23438" rx="1" fill="#0099FF"/>
<rect x="48" y="65.4609" width="6" height="6.23438" rx="1" fill="#0099FF"/>
<rect x="48" y="152.742" width="6" height="6.23438" rx="1" fill="#0099FF"/>
<rect x="64" width="6" height="6.23438" rx="1" fill="#0099FF"/>
<rect x="64" y="87.2812" width="6" height="6.23438" rx="1" fill="#0099FF"/>
<rect x="64" y="21.8203" width="6" height="6.23438" rx="1" fill="#0099FF"/>
<rect x="64" y="109.102" width="6" height="6.23438" rx="1" fill="#0099FF"/>
<rect x="64" y="43.6406" width="6" height="6.23438" rx="1" fill="#0099FF"/>
<rect x="64" y="130.922" width="6" height="6.23438" rx="1" fill="#0099FF"/>
<rect x="64" y="65.4609" width="6" height="6.23438" rx="1" fill="#0099FF"/>
<rect x="64" y="152.742" width="6" height="6.23438" rx="1" fill="#0099FF"/>
<rect x="80" width="6" height="6.23438" rx="1" fill="#0099FF"/>
<rect x="80" y="87.2812" width="6" height="6.23438" rx="1" fill="#0099FF"/>
<rect x="80" y="21.8203" width="6" height="6.23438" rx="1" fill="#0099FF"/>
<rect x="80" y="109.102" width="6" height="6.23438" rx="1" fill="#0099FF"/>
<rect x="80" y="43.6406" width="6" height="6.23438" rx="1" fill="#0099FF"/>
<rect x="80" y="130.922" width="6" height="6.23438" rx="1" fill="#0099FF"/>
<rect x="80" y="65.4609" width="6" height="6.23438" rx="1" fill="#0099FF"/>
<rect x="80" y="152.742" width="6" height="6.23438" rx="1" fill="#0099FF"/>
<rect x="96" width="6" height="6.23438" rx="1" fill="#0099FF"/>
<rect x="96" y="87.2812" width="6" height="6.23438" rx="1" fill="#0099FF"/>
<rect x="96" y="21.8203" width="6" height="6.23438" rx="1" fill="#0099FF"/>
<rect x="96" y="109.102" width="6" height="6.23438" rx="1" fill="#0099FF"/>
<rect x="96" y="43.6406" width="6" height="6.23438" rx="1" fill="#0099FF"/>
<rect x="96" y="130.922" width="6" height="6.23438" rx="1" fill="#0099FF"/>
<rect x="96" y="65.4609" width="6" height="6.23438" rx="1" fill="#0099FF"/>
<rect x="96" y="152.742" width="6" height="6.23438" rx="1" fill="#0099FF"/>
</g>
</svg>
