<svg width="16" height="16" viewBox="0 0 16 16" fill="none" xmlns="http://www.w3.org/2000/svg">
<g opacity="0.5">
<path d="M8.66602 4.66673V7.3334H13.3327C13.5095 7.3334 13.6791 7.40364 13.8041 7.52866C13.9291 7.65369 13.9993 7.82326 13.9993 8.00007V13.3334H15.3327V14.6667H0.666016V13.3334H1.99935V8.00007C1.99935 7.82326 2.06959 7.65369 2.19461 7.52866C2.31964 7.40364 2.4892 7.3334 2.66602 7.3334H7.33268V4.66673H8.66602ZM12.666 8.66673H3.33268V13.3334H12.666V8.66673ZM9.21935 0.268066C9.48455 0.727424 9.55642 1.27332 9.41915 1.78566C9.28187 2.29801 8.94669 2.73484 8.48735 3.00007L7.33268 3.66673C7.06748 3.20738 6.99561 2.66148 7.13288 2.14914C7.27016 1.63679 7.60534 1.19996 8.06468 0.934733L9.21935 0.268066Z" fill="#252525"/>
</g>
</svg>
