<svg width="16" height="16" viewBox="0 0 16 16" fill="none" xmlns="http://www.w3.org/2000/svg">
<g opacity="0.5">
<path d="M10.0333 5.69133L12.39 3.33333H9.33331V2H14.6666V7.33333H13.3333V4.276L10.9753 6.634C11.7445 7.64234 12.1019 8.90533 11.9749 10.1672C11.8479 11.4291 11.2461 12.5956 10.2914 13.4305C9.33674 14.2654 8.10045 14.7062 6.83289 14.6638C5.56534 14.6215 4.36126 14.099 3.46447 13.2022C2.56767 12.3054 2.04518 11.1013 2.0028 9.83375C1.96041 8.5662 2.40129 7.3299 3.23617 6.3752C4.07105 5.4205 5.23754 4.81874 6.49942 4.69176C7.76131 4.56479 9.0243 4.9221 10.0326 5.69133H10.0333ZM6.99998 13.3333C7.97244 13.3333 8.90507 12.947 9.5927 12.2594C10.2803 11.5718 10.6666 10.6391 10.6666 9.66667C10.6666 8.69421 10.2803 7.76157 9.5927 7.07394C8.90507 6.38631 7.97244 6 6.99998 6C6.02752 6 5.09489 6.38631 4.40725 7.07394C3.71962 7.76157 3.33331 8.69421 3.33331 9.66667C3.33331 10.6391 3.71962 11.5718 4.40725 12.2594C5.09489 12.947 6.02752 13.3333 6.99998 13.3333Z" fill="#252525"/>
</g>
</svg>
