<svg width="16" height="16" viewBox="0 0 16 16" fill="none" xmlns="http://www.w3.org/2000/svg">
<g opacity="0.5">
<path d="M2.66602 14.6667C2.66602 13.2523 3.22792 11.8957 4.22811 10.8955C5.22831 9.89532 6.58486 9.33342 7.99935 9.33342C9.41384 9.33342 10.7704 9.89532 11.7706 10.8955C12.7708 11.8957 13.3327 13.2523 13.3327 14.6667H11.9993C11.9993 13.6059 11.5779 12.5885 10.8278 11.8383C10.0776 11.0882 9.06021 10.6667 7.99935 10.6667C6.93848 10.6667 5.92107 11.0882 5.17092 11.8383C4.42078 12.5885 3.99935 13.6059 3.99935 14.6667H2.66602ZM7.99935 8.66675C5.78935 8.66675 3.99935 6.87675 3.99935 4.66675C3.99935 2.45675 5.78935 0.666748 7.99935 0.666748C10.2093 0.666748 11.9993 2.45675 11.9993 4.66675C11.9993 6.87675 10.2093 8.66675 7.99935 8.66675ZM7.99935 7.33342C9.47268 7.33342 10.666 6.14008 10.666 4.66675C10.666 3.19341 9.47268 2.00008 7.99935 2.00008C6.52602 2.00008 5.33268 3.19341 5.33268 4.66675C5.33268 6.14008 6.52602 7.33342 7.99935 7.33342Z" fill="#252525"/>
</g>
</svg>
